<?xml version="1.0" encoding="utf-8"?>
<!-- Generator: Adobe Illustrator 15.0.0, SVG Export Plug-In . SVG Version: 6.00 Build 0)  -->
<!DOCTYPE svg PUBLIC "-//W3C//DTD SVG 1.1//EN" "http://www.w3.org/Graphics/SVG/1.1/DTD/svg11.dtd">
<svg version="1.1" id="Layer_1" xmlns="http://www.w3.org/2000/svg" xmlns:xlink="http://www.w3.org/1999/xlink" x="0px" y="0px"
	 width="49.32px" height="13.89px" viewBox="0 0 49.32 13.89" enable-background="new 0 0 49.32 13.89" xml:space="preserve">
<g>
	<g>
		<path fill="#009640" d="M28.856,4.458c0,0,0.062,0.364-0.13,1.298l-0.371,1.803h1.264l0.371-1.803
			c0.176-0.847,0.128-1.298,0.128-1.298H28.856z"/>
		<path fill="#009640" d="M37.833,4.458l-0.264,1.288h1.033c0.44,0,0.703,0.225,0.461,1.406c-0.217,1.051-0.56,1.405-1.028,1.405
			H36.99l-0.267,1.288h1.601c0.901,0,1.641-0.836,2.023-2.693c0.415-2.018-0.164-2.693-0.914-2.693H37.833z"/>
		<path fill="#009640" d="M30.728,3.462c-0.006,0.104,0,0.269-0.022,0.389c-0.042,0.248-0.104,0.612-0.104,0.612
			c-0.104,0.77,0.066,1.288,0.866,1.288h0.385c0.687-0.054,0.383,0.423,0.155,1.008l-1.151,3.09h1.318l1.282-3.477
			c0.478-1.301,0.01-1.888-0.469-1.888c-0.375,0-0.523-0.01-0.832-0.01c-0.325,0-0.274-0.298-0.224-0.585
			c0.03-0.164,0.021-0.333,0.032-0.427H30.728z"/>
		<path fill="#009640" d="M24.098,8.018c-0.238,1.072-0.703,0.815-1.02,0.761c-0.091,0.401-0.223,1.01-0.223,1.01
			s0.568,0.11,1.032,0.101c0.679-0.017,1.144-0.326,1.481-1.955l0.451-2.188h0.454c0.561,0,0.554,0.247,0.401,0.987l-0.64,3.112
			h1.265l0.69-3.384c0.396-1.829-0.185-1.998-1.041-1.998l-2.13-0.004L24.098,8.018z"/>
		<path fill="#009640" d="M34.185,3.462c-0.006,0.104,0,0.269-0.023,0.389c-0.044,0.248-0.104,0.612-0.104,0.612
			c-0.104,0.77,0.066,1.288,0.866,1.288h0.385c0.684-0.054,0.382,0.423,0.152,1.008l-1.149,3.09h1.318l1.28-3.477
			c0.48-1.301,0.012-1.888-0.469-1.888c-0.375,0-0.523-0.01-0.829-0.01c-0.325,0-0.277-0.298-0.224-0.585
			c0.029-0.164,0.02-0.333,0.031-0.427H34.185z"/>
		<path fill="#009FE3" d="M45.016,3.593L43.37,4.971c-0.071,0.062-0.159,0.092-0.251,0.092l-1.098,0
			c-0.079,0-0.165,0.067-0.183,0.147l-0.213,1.027c-0.017,0.08,0.038,0.142,0.118,0.142h1.957c0.213,0,0.322-0.1,0.343-0.119
			l1.183-0.988c0.036-0.032,0.079-0.046,0.13-0.046c0.057,0,0.108,0.023,0.145,0.063l0.781,0.931
			c0.134,0.16,0.306,0.163,0.376,0.163h1.753c0.08,0,0.156-0.065,0.173-0.145l0.219-1.032c0.016-0.078-0.035-0.143-0.113-0.143
			l-1.479-0.001c-0.061,0-0.111-0.027-0.144-0.067l-1.17-1.397C45.799,3.475,45.658,3.4,45.479,3.4
			C45.271,3.4,45.141,3.484,45.016,3.593"/>
		<path fill="#009640" d="M41.482,7.603c-0.079,0-0.157,0.064-0.173,0.143l-0.217,1.032c-0.019,0.078,0.032,0.143,0.11,0.143
			l1.479,0.002c0.062,0,0.114,0.026,0.146,0.066l1.171,1.397c0.096,0.122,0.238,0.197,0.417,0.197c0.208,0,0.34-0.084,0.465-0.191
			l1.643-1.379c0.071-0.063,0.162-0.093,0.254-0.093h1.096c0.08,0,0.167-0.068,0.183-0.146l0.215-1.028
			c0.016-0.079-0.041-0.141-0.119-0.141h-1.957c-0.214,0-0.321,0.099-0.343,0.118l-1.184,0.989c-0.036,0.033-0.077,0.047-0.13,0.047
			c-0.057,0-0.108-0.024-0.143-0.062l-0.783-0.934c-0.133-0.159-0.304-0.162-0.377-0.162L41.482,7.603z"/>
		<path fill="#00763C" d="M1.659,7.101c-0.1,0.012-0.13,0.046-0.148,0.135L1.448,7.528c-0.02,0.095,0.016,0.111,0.104,0.104
			C1.827,7.603,2.05,7.603,2.246,7.603c0.117,0,0.237,0.004,0.34,0.011C2.498,7.42,2.396,7.232,2.286,7.051
			C2.087,7.06,1.886,7.077,1.659,7.101 M1.609,8.276c-0.063,0-0.096,0.018-0.135,0.07c-0.096,0.13-0.211,0.352-0.252,0.54
			L1.045,9.718C1.023,9.822,1.04,9.852,1.131,9.852H1.52c0.098,0,0.127-0.029,0.149-0.134l0.283-1.33
			c0.018-0.082,0-0.111-0.084-0.111H1.609z M2.787,8.99L2.632,9.718c-0.022,0.104,0,0.134,0.092,0.134h0.268
			C2.996,9.825,3,9.8,3.004,9.773c0.049-0.401,0.007-0.847-0.108-1.297L2.787,8.99z"/>
		<path fill="#009640" d="M2.285,7.051c0.111,0.181,0.212,0.369,0.302,0.562c0.076,0.005,0.144,0.01,0.191,0.015
			C2.995,7.656,3.044,7.773,3.014,7.92L2.896,8.477c0.116,0.45,0.158,0.896,0.108,1.298C3,9.8,2.995,9.825,2.991,9.852h0.122
			c0.092,0,0.121-0.029,0.144-0.134L3.41,8.99l0.229-1.076c0.133-0.626-0.158-0.873-0.948-0.873
			C2.553,7.042,2.419,7.044,2.285,7.051 M2.587,7.614L2.587,7.614L2.582,7.613L2.587,7.614z M4.465,9.284H3.909
			c-0.091,0-0.119,0.022-0.141,0.123L3.699,9.734C3.679,9.827,3.697,9.852,3.79,9.852h1.03c0.104,0,0.137-0.015,0.163-0.101
			c-0.067-0.377-0.196-0.76-0.376-1.133L4.465,9.284z"/>
		<path fill="#BCCF00" d="M4.413,7.101C4.313,7.141,4.312,7.147,4.292,7.242L4.233,7.516C4.212,7.615,4.231,7.632,4.32,7.615
			C4.362,7.61,4.44,7.597,4.514,7.597c0.246,0,0.292,0.083,0.243,0.312L4.704,8.16L4.606,8.618c0.18,0.372,0.309,0.756,0.376,1.133
			C4.986,9.737,4.99,9.723,4.994,9.705L5.3,8.264C5.207,7.742,4.916,7.358,4.491,7.083C4.457,7.088,4.429,7.093,4.413,7.101
			 M4.965,9.794c0.007-0.012,0.012-0.025,0.017-0.041C4.977,9.769,4.972,9.782,4.965,9.794"/>
		<path fill="#009FE3" d="M8.625,7.059c-0.085,0-0.117,0.042-0.154,0.135L8.323,7.543C8.472,7.676,8.629,7.8,8.794,7.917
			l0.289-0.694c0.035-0.082,0.069-0.164-0.034-0.164H8.625z"/>
		<path fill="#E94E1B" d="M7.371,7.059c-0.097,0-0.113,0.047-0.153,0.153L6.875,8.131c-0.003,0.01-0.008,0.02-0.012,0.028
			C6.94,8.312,7.006,8.473,7.06,8.637c0.164-0.096,0.325-0.277,0.418-0.518l0.347-0.877c0.038-0.101,0.09-0.183-0.037-0.183H7.371z
			 M6.06,7.059c-0.037,0-0.06,0.013-0.075,0.034c0.218,0.17,0.415,0.371,0.583,0.595l0.019-0.47C6.593,7.112,6.575,7.059,6.5,7.059
			H6.06z M7.725,8.95C7.611,9.222,7.43,9.335,7.205,9.356c0.007,0.089,0.011,0.179,0.011,0.271c0,0.085-0.004,0.167-0.01,0.25
			c0.547-0.054,0.931-0.383,1.177-0.974l0.412-0.986C8.63,7.801,8.472,7.676,8.323,7.543L7.725,8.95z"/>
		<path fill="#C94D1B" d="M6.06,7.059c-0.037,0-0.06,0.013-0.075,0.034c0.218,0.17,0.415,0.371,0.583,0.595l0.019-0.444
			C6.458,7.172,6.323,7.112,6.183,7.059H6.06z M5.984,7.093L5.984,7.093L5.984,7.093L5.984,7.093z M5.973,7.112
			c0.002-0.007,0.006-0.014,0.011-0.02C5.979,7.099,5.975,7.105,5.973,7.112 M5.97,7.118c0-0.002,0.001-0.004,0.003-0.006
			C5.971,7.114,5.971,7.116,5.97,7.118 M6.875,8.131C6.871,8.141,6.866,8.15,6.862,8.16C6.94,8.312,7.006,8.473,7.06,8.637
			c0.164-0.096,0.325-0.277,0.418-0.518l0.042-0.106c-0.132-0.16-0.278-0.305-0.438-0.437L6.875,8.131z M7.725,8.95
			C7.611,9.222,7.43,9.335,7.205,9.356c0.007,0.089,0.011,0.179,0.011,0.271c0,0.085-0.003,0.167-0.01,0.25
			c-0.05,0.005-0.101,0.01-0.153,0.01c0.478-0.005,0.842-0.198,1.107-0.575C8.101,9.051,8.008,8.8,7.887,8.568L7.725,8.95z"/>
		<path fill="#F9B233" d="M4.491,7.083C4.916,7.358,5.207,7.742,5.3,8.264l0.03-0.139l0.048-0.228
			c0.13-0.616-0.08-0.838-0.601-0.838C4.698,7.059,4.576,7.07,4.491,7.083 M4.475,7.085C4.48,7.083,4.486,7.083,4.491,7.083
			C4.486,7.083,4.48,7.083,4.475,7.085 M4.469,7.085c0.002,0,0.004,0,0.006,0C4.473,7.085,4.471,7.085,4.469,7.085 M5.956,7.228
			L5.903,8.979C5.884,9.635,6.152,9.887,6.708,9.887h0.332c0.058,0,0.113-0.004,0.167-0.01c0.007-0.083,0.01-0.165,0.01-0.25
			c0-0.092-0.004-0.182-0.011-0.271C7.178,9.358,7.151,9.36,7.123,9.36H6.836c-0.2,0-0.319-0.06-0.313-0.276l0.004-0.181
			l0.486-0.241C7.028,8.654,7.044,8.645,7.06,8.637C7.006,8.473,6.94,8.312,6.862,8.16C6.78,8.362,6.649,8.473,6.557,8.518
			L6.532,8.529l0.035-0.841C6.399,7.464,6.203,7.263,5.984,7.093C5.961,7.124,5.957,7.174,5.956,7.228"/>
		<path fill="#E94E1B" d="M9.742,9.852h1.314l0.409-1.923c-0.288-0.409-0.659-0.797-1.073-1.134L9.742,9.852z"/>
		<path fill="#F9B233" d="M12.48,5.924c0.013-0.032,0.026-0.062,0.039-0.092C12.506,5.862,12.493,5.893,12.48,5.924"/>
		<path fill="#F9B233" d="M12.747,5.385c0.013-0.022,0.026-0.044,0.04-0.065C12.773,5.341,12.76,5.363,12.747,5.385"/>
		<path fill="#F9B233" d="M12.553,5.756c0.01-0.023,0.021-0.046,0.032-0.068C12.574,5.71,12.563,5.733,12.553,5.756"/>
		<path fill="#F9B233" d="M12.615,5.627c0.011-0.023,0.023-0.046,0.035-0.068C12.639,5.581,12.626,5.604,12.615,5.627"/>
		<path fill="#F9B233" d="M12.816,5.272c0.014-0.021,0.028-0.043,0.042-0.064C12.844,5.229,12.83,5.251,12.816,5.272"/>
		<path fill="#F9B233" d="M12.959,5.066c0.016-0.021,0.032-0.042,0.048-0.062C12.991,5.024,12.976,5.046,12.959,5.066"/>
		<path fill="#F9B233" d="M14.193,5.275c0.009-0.009,0.019-0.018,0.029-0.026C14.212,5.257,14.203,5.266,14.193,5.275"/>
		<path fill="#F9B233" d="M12.417,6.086c0.007-0.018,0.014-0.038,0.021-0.056C12.43,6.049,12.423,6.068,12.417,6.086"/>
		<path fill="#F9B233" d="M13.239,4.745c0.019-0.019,0.038-0.036,0.057-0.054C13.277,4.709,13.258,4.727,13.239,4.745"/>
		<path fill="#F9B233" d="M14.095,5.385c0.008-0.01,0.017-0.02,0.025-0.029C14.111,5.366,14.103,5.375,14.095,5.385"/>
		<path fill="#F9B233" d="M14.301,5.178c0.011-0.009,0.022-0.017,0.034-0.024C14.324,5.162,14.312,5.169,14.301,5.178"/>
		<path fill="#F9B233" d="M12.323,6.359L12.323,6.359c0.002-0.008,0.004-0.014,0.006-0.021C12.328,6.345,12.325,6.352,12.323,6.359"
			/>
		<path fill="#F9B233" d="M12.368,6.224c0-0.002,0.001-0.004,0.002-0.006c0.004-0.012,0.008-0.024,0.012-0.037
			c-0.007,0.021-0.014,0.04-0.021,0.061C12.364,6.235,12.366,6.229,12.368,6.224L12.368,6.224z"/>
		<path fill="#F9B233" d="M14.292,4.109c0.018-0.006,0.035-0.01,0.053-0.016C14.327,4.099,14.31,4.104,14.292,4.109"/>
		<path fill="#F9B233" d="M13.322,4.666c0.019-0.017,0.037-0.033,0.056-0.048C13.358,4.633,13.34,4.649,13.322,4.666"/>
		<path fill="#F9B233" d="M14.193,4.142c0.019-0.006,0.037-0.013,0.056-0.019C14.23,4.129,14.211,4.136,14.193,4.142"/>
		<path fill="#F9B233" d="M14.419,5.095c0.013-0.007,0.026-0.014,0.038-0.021C14.445,5.082,14.432,5.088,14.419,5.095"/>
		<path fill="#F9B233" d="M12.708,5.454c0.002-0.006,0.006-0.013,0.009-0.018c-0.012,0.022-0.025,0.044-0.038,0.067
			c0.008-0.016,0.017-0.031,0.026-0.046C12.707,5.456,12.707,5.455,12.708,5.454"/>
		<path fill="#F9B233" d="M14.393,4.08c0.016-0.004,0.034-0.009,0.05-0.013C14.426,4.071,14.409,4.076,14.393,4.08"/>
		<path fill="#F9B233" d="M15.739,4.037c0.008,0.001,0.015,0.003,0.022,0.005C15.754,4.04,15.747,4.038,15.739,4.037"/>
		<path fill="#F9B233" d="M15.544,4.004c0.011,0.001,0.022,0.003,0.033,0.004C15.566,4.007,15.555,4.006,15.544,4.004"/>
		<path fill="#F9B233" d="M14.095,4.179c0.02-0.008,0.039-0.015,0.059-0.022C14.134,4.164,14.115,4.171,14.095,4.179"/>
		<path fill="#F9B233" d="M13.581,4.458c0.019-0.013,0.038-0.027,0.057-0.039C13.619,4.432,13.6,4.445,13.581,4.458"/>
		<path fill="#F9B233" d="M13.493,4.523c0.019-0.014,0.037-0.028,0.056-0.042C13.53,4.495,13.512,4.509,13.493,4.523"/>
		<path fill="#F9B233" d="M13.407,4.592c0.019-0.015,0.037-0.03,0.055-0.044C13.443,4.562,13.425,4.577,13.407,4.592"/>
		<path fill="#F9B233" d="M13.757,4.345c0.021-0.013,0.042-0.024,0.063-0.036C13.799,4.321,13.778,4.333,13.757,4.345"/>
		<path fill="#F9B233" d="M13.669,4.399c0.02-0.012,0.04-0.024,0.059-0.037C13.708,4.375,13.689,4.387,13.669,4.399"/>
		<path fill="#F9B233" d="M13.837,4.3c0.075-0.041,0.152-0.077,0.229-0.109C13.989,4.224,13.912,4.259,13.837,4.3"/>
		<path fill="#F9B233" d="M14.005,5.505c0.007-0.01,0.016-0.02,0.023-0.03C14.021,5.485,14.012,5.495,14.005,5.505"/>
		<path fill="#F9B233" d="M13.75,6.003c-0.005,0.012-0.01,0.023-0.015,0.035c0,0.001-0.001,0.002-0.001,0.003
			C13.739,6.028,13.745,6.015,13.75,6.003"/>
		<path fill="#F9B233" d="M13.707,6.117c-0.005,0.014-0.01,0.027-0.014,0.041c0,0.001-0.001,0.002-0.001,0.004
			C13.696,6.146,13.701,6.131,13.707,6.117"/>
		<path fill="#F9B233" d="M13.87,5.735c-0.004,0.01-0.01,0.019-0.014,0.028l-0.002,0.005C13.858,5.757,13.864,5.746,13.87,5.735"/>
		<polyline fill="#F9B233" points="15.506,5.14 15.507,5.141 15.506,5.14 		"/>
		<path fill="#F9B233" d="M13.672,6.216c0,0,0,0.001,0,0.002c-0.005,0.015-0.009,0.029-0.014,0.043
			c-0.005,0.017-0.011,0.035-0.017,0.052C13.651,6.281,13.662,6.248,13.672,6.216"/>
		<path fill="#F9B233" d="M13.806,5.87c-0.002,0.005-0.005,0.01-0.007,0.016c0,0.001-0.001,0.003-0.001,0.004
			C13.8,5.883,13.803,5.876,13.806,5.87"/>
		<path fill="#F9B233" d="M14.562,5.022c-0.005,0.001-0.009,0.004-0.013,0.006c0.125-0.053,0.262-0.084,0.417-0.084
			c0.186,0,0.33,0.042,0.442,0.116c-0.033-0.189-0.05-0.382-0.05-0.579c0-0.167,0.013-0.331,0.036-0.491
			c-0.073-0.005-0.147-0.008-0.223-0.008c-0.238,0-0.475,0.026-0.706,0.081c0.066,0.255,0.102,0.522,0.102,0.797
			C14.565,4.914,14.564,4.968,14.562,5.022"/>
		<path fill="#F9B233" d="M13.125,4.866c0.033-0.036,0.065-0.072,0.099-0.105c-0.067,0.067-0.132,0.139-0.194,0.217
			c0.031-0.039,0.063-0.075,0.094-0.11C13.124,4.867,13.124,4.866,13.125,4.866"/>
		<path fill="#F9B233" d="M12.907,5.138c0.008-0.011,0.016-0.023,0.024-0.035c-0.015,0.021-0.03,0.042-0.044,0.063
			c0.005-0.009,0.012-0.017,0.018-0.026C12.906,5.139,12.907,5.139,12.907,5.138"/>
		<path fill="#F9B233" d="M13.622,6.382c-0.001,0.004-0.002,0.008-0.004,0.013s-0.003,0.01-0.004,0.016
			c-0.001,0.003-0.002,0.007-0.003,0.01C13.614,6.408,13.618,6.396,13.622,6.382"/>
		<path fill="#F9B233" d="M13.944,5.602c-0.003,0.005-0.006,0.01-0.009,0.015c-0.001,0.002-0.002,0.004-0.003,0.006
			C13.936,5.616,13.94,5.609,13.944,5.602"/>
		<polyline fill="#F9B233" points="15.647,5.353 15.648,5.355 15.647,5.353 		"/>
		<polyline fill="#F9B233" points="15.585,5.238 15.587,5.241 15.585,5.238 		"/>
		<polyline fill="#F9B233" points="15.723,5.613 15.724,5.618 15.723,5.613 		"/>
		<path fill="#E94E1B" d="M15.745,6.062c0.001-0.03,0.001-0.059,0.001-0.088C15.746,6.003,15.747,6.032,15.745,6.062z"/>
		<path fill="#E94E1B" d="M17.05,5.801c0.001,0.055,0.001,0.112,0,0.17C17.051,5.913,17.051,5.856,17.05,5.801"/>
		<path fill="#E94E1B" d="M16.988,5.26c0.011,0.045,0.02,0.092,0.028,0.14C17.007,5.352,16.999,5.305,16.988,5.26"/>
		<path fill="#E94E1B" d="M17.02,5.426c0.017,0.11,0.027,0.229,0.03,0.354C17.046,5.655,17.036,5.536,17.02,5.426"/>
		<path fill="#E94E1B" d="M17.047,6.067c0.001-0.02,0.001-0.039,0.002-0.058c0,0.019-0.002,0.039-0.003,0.058H17.047z"/>
		<path fill="#E94E1B" d="M15.745,5.828c0.001,0.023,0.002,0.046,0.003,0.07C15.747,5.874,15.746,5.851,15.745,5.828"/>
		<path fill="#E94E1B" d="M15.407,5.06L15.407,5.06c0.036,0.023,0.069,0.051,0.099,0.08c0,0.001,0.001,0.001,0.001,0.001
			c0.028,0.03,0.055,0.062,0.078,0.097c0,0.001,0.001,0.002,0.001,0.003c0.023,0.035,0.043,0.072,0.06,0.111
			c0,0,0.001,0.002,0.001,0.002c0.035,0.079,0.059,0.167,0.075,0.258c0,0.001,0,0.003,0.001,0.005
			c0.007,0.04,0.011,0.081,0.015,0.122c0-0.002,0-0.003,0-0.005c0-0.012-0.002-0.025-0.003-0.036
			c0.359-0.351,0.636-0.787,0.796-1.276c0.211,0.196,0.369,0.463,0.453,0.817c-0.166-0.705-0.623-1.066-1.223-1.198
			c-0.007-0.001-0.015-0.003-0.022-0.005c-0.052-0.012-0.106-0.021-0.161-0.028c-0.011-0.001-0.022-0.003-0.034-0.004
			c-0.05-0.006-0.1-0.012-0.151-0.016v0C15.37,4.15,15.357,4.314,15.357,4.48C15.357,4.678,15.374,4.871,15.407,5.06"/>
		<polyline fill="#E30613" points="21.018,4.063 21.018,4.063 21.019,4.064 21.018,4.063 		"/>
		<path fill="#E30613" d="M18.772,5.5c0.375-0.73,1.021-1.28,1.827-1.506c0,0,0.001,0,0.002,0c-0.001,0-0.001,0-0.001,0
			c0,0,0,0,0.001,0c0.141,0.012,0.276,0.033,0.403,0.066h0.001c-0.207-0.053-0.432-0.079-0.669-0.079
			c-0.923,0-1.829,0.379-2.44,1.436c0.032-0.056,0.064-0.109,0.098-0.161C18.273,5.303,18.534,5.386,18.772,5.5"/>
		<path fill="#E30613" d="M21.353,4.188c-0.014-0.007-0.027-0.013-0.041-0.02c0.002,0,0.003,0.002,0.005,0.002
			C21.329,4.176,21.34,4.182,21.353,4.188"/>
		<path fill="#E30613" d="M17.695,5.81c-0.036,0.082-0.071,0.168-0.105,0.257h0.001C17.625,5.978,17.659,5.892,17.695,5.81"/>
		<path fill="#E30613" d="M21.105,4.089c-0.026-0.008-0.053-0.016-0.081-0.023c0.011,0.003,0.022,0.006,0.033,0.01
			C21.074,4.08,21.09,4.084,21.105,4.089"/>
		<path fill="#E30613" d="M21.132,4.099c0.039,0.012,0.077,0.026,0.113,0.041C21.209,4.125,21.171,4.11,21.132,4.099"/>
		<path fill="#E30613" d="M17.805,5.582c0.024-0.047,0.048-0.092,0.074-0.136C17.853,5.49,17.829,5.535,17.805,5.582"/>
		<path fill="#E30613" d="M21.432,4.229c0.008,0.005,0.016,0.009,0.023,0.013C21.448,4.238,21.44,4.234,21.432,4.229"/>
		<path fill="#E30613" d="M17.716,5.765c0.021-0.046,0.042-0.091,0.065-0.135C17.758,5.674,17.737,5.719,17.716,5.765"/>
		<path fill="#E30613" d="M20.778,6.949c-0.021,0.099-0.046,0.215-0.077,0.341c0.001,0,0.002-0.001,0.003-0.002c0,0,0-0.002,0-0.002
			v0.002l0,0c0.03-0.125,0.054-0.24,0.076-0.338c0.104-0.488,0.321-1.509-0.18-1.873c-0.001-0.001-0.002-0.002-0.004-0.003
			c-0.018-0.012-0.036-0.024-0.055-0.036C21.115,5.365,20.886,6.443,20.778,6.949"/>
		<polyline fill="#E30613" points="21.562,4.311 21.563,4.313 21.562,4.311 		"/>
		<polyline fill="#E30613" points="21.667,4.394 21.667,4.394 21.667,4.394 		"/>
		<path fill="#AD2221" d="M17.857,9.636c-0.001-0.001-0.002-0.001-0.003-0.002c-0.038-0.027-0.074-0.058-0.109-0.089
			c-0.004-0.005-0.008-0.008-0.013-0.011c-0.07-0.065-0.134-0.137-0.191-0.217c-0.002-0.004-0.005-0.008-0.008-0.012
			c-0.028-0.041-0.055-0.083-0.08-0.128c-0.002-0.004-0.004-0.007-0.006-0.011c-0.049-0.093-0.092-0.191-0.127-0.302
			c-0.002-0.007-0.004-0.013-0.006-0.021c-0.017-0.055-0.032-0.112-0.045-0.171l0,0c-0.013-0.06-0.023-0.121-0.032-0.186
			c0-0.005-0.002-0.009-0.002-0.014c0,0,0,0,0,0c-0.018-0.126-0.026-0.263-0.026-0.407h-0.002c0.001,0.86,0.303,1.376,0.772,1.648
			c-0.001-0.002-0.003-0.002-0.004-0.004C17.934,9.689,17.895,9.663,17.857,9.636"/>
		<path fill="#AD2221" d="M18.107,9.782c-0.007-0.003-0.013-0.006-0.02-0.009C18.094,9.776,18.101,9.779,18.107,9.782"/>
		<path fill="#AD2221" d="M19.37,8.999c0.007-0.001,0.014-0.001,0.021-0.002c0.008,0,0.016-0.002,0.024-0.002
			c0.014-0.002,0.027-0.006,0.041-0.007C19.427,8.992,19.399,8.996,19.37,8.999"/>
		<polyline fill="#AD2221" points="18.289,9.854 18.284,9.853 18.289,9.854 		"/>
		<path fill="#AD2221" d="M19.129,8.993c0.005,0.001,0.008,0.002,0.013,0.003s0.011,0.001,0.016,0.001
			c-0.013-0.002-0.025-0.004-0.037-0.006C19.124,8.992,19.127,8.993,19.129,8.993"/>
		<path fill="#AD2221" d="M14.348,8.977L14.348,8.977c0.01-0.002,0.019-0.004,0.028-0.006c0.001-0.001,0.003-0.002,0.005-0.002
			c0.027-0.007,0.055-0.016,0.081-0.023c0-0.001,0-0.001,0.001-0.001c0.388-0.137,0.644-0.488,0.817-0.877h0
			C15.09,8.492,14.801,8.874,14.348,8.977"/>
		<polyline fill="#AD2221" points="18.196,9.819 18.184,9.814 18.196,9.819 		"/>
		<path fill="#AD2221" d="M20.383,8.2C20.188,8.584,19.9,8.907,19.47,8.986c0.011-0.002,0.023-0.004,0.033-0.006
			c0.009-0.002,0.019-0.004,0.028-0.006c0.031-0.008,0.062-0.016,0.092-0.026c0.006-0.002,0.012-0.005,0.018-0.007
			c0.031-0.012,0.061-0.024,0.09-0.038c0.01-0.004,0.019-0.009,0.029-0.013c0.021-0.012,0.042-0.024,0.063-0.036
			c0.011-0.006,0.021-0.012,0.031-0.02c0.021-0.014,0.042-0.027,0.063-0.043c0.002-0.002,0.004-0.003,0.006-0.005
			c0.004-0.002,0.008-0.005,0.011-0.008c0.004-0.003,0.007-0.006,0.011-0.009c0.022-0.018,0.044-0.037,0.065-0.056
			c0.001-0.001,0.002-0.001,0.003-0.003c0.009-0.008,0.018-0.016,0.026-0.023c0.016-0.016,0.031-0.032,0.047-0.049
			c0.005-0.006,0.011-0.012,0.016-0.018c0.005-0.005,0.011-0.012,0.017-0.018c0.014-0.017,0.026-0.031,0.039-0.048
			c0.01-0.012,0.021-0.024,0.03-0.036c0.012-0.016,0.024-0.032,0.036-0.048c0.006-0.011,0.013-0.021,0.02-0.029
			c0.002-0.003,0.003-0.005,0.005-0.006c0.003-0.006,0.006-0.01,0.009-0.015s0.007-0.011,0.011-0.017
			c0.01-0.017,0.021-0.032,0.031-0.05c0.002-0.002,0.003-0.006,0.005-0.009c0.008-0.014,0.017-0.028,0.024-0.042
			c0.009-0.015,0.017-0.029,0.025-0.044c0.009-0.016,0.019-0.033,0.027-0.05c0.001-0.002,0.002-0.004,0.003-0.007
			C20.383,8.203,20.383,8.202,20.383,8.2"/>
		<path fill="#AD2221" d="M19.358,8.999c-0.03,0.002-0.06,0.004-0.09,0.004c-0.019,0-0.035-0.002-0.052-0.002
			c0.008,0,0.015,0.001,0.022,0.001c0.011,0.001,0.021,0.002,0.032,0.002C19.301,9.004,19.33,9.001,19.358,8.999"/>
		<path fill="#AD2221" d="M17.982,9.718c0.015,0.008,0.031,0.017,0.047,0.024c-0.015-0.008-0.03-0.016-0.044-0.022
			C17.984,9.719,17.983,9.718,17.982,9.718"/>
		<path fill="#AD2221" d="M18.946,8.947c0.004,0.002,0.006,0.003,0.009,0.004c0.006,0.002,0.013,0.004,0.019,0.007
			C18.965,8.954,18.956,8.951,18.946,8.947"/>
		<path fill="#AD2221" d="M15.738,5.717c0,0.009,0.002,0.019,0.002,0.029c0-0.003-0.001-0.007-0.002-0.011c0,0.001,0,0.003,0,0.005
			c0.003,0.029,0.004,0.059,0.006,0.088c0.001,0.024,0.002,0.046,0.003,0.07c0,0.025,0,0.05-0.001,0.076
			c0,0.029,0,0.058-0.001,0.088c0,0.001,0,0.003,0,0.005h0.003c0,0,0-0.001,0-0.001c0,0,0,0.001,0,0.001h1.297
			c0.001-0.02,0.003-0.039,0.003-0.058c0-0.013,0-0.025,0-0.038c0.002-0.058,0.002-0.115,0.001-0.17c0-0.007,0-0.014,0-0.021
			c-0.003-0.125-0.014-0.244-0.03-0.354c-0.001-0.009-0.003-0.018-0.004-0.026c-0.008-0.048-0.017-0.095-0.028-0.14
			c-0.001-0.005-0.001-0.01-0.002-0.014C16.531,5.313,16.107,5.478,15.738,5.717"/>
		<path fill="#AD2221" d="M18.548,6.067c0.058-0.198,0.132-0.389,0.224-0.567c-0.239-0.113-0.499-0.197-0.779-0.243
			c-0.034,0.051-0.066,0.105-0.098,0.161c-0.006,0.01-0.011,0.019-0.017,0.029c-0.025,0.043-0.05,0.088-0.074,0.136
			c-0.008,0.016-0.016,0.031-0.024,0.048c-0.022,0.043-0.043,0.089-0.065,0.135c-0.006,0.015-0.013,0.03-0.021,0.045
			c-0.036,0.082-0.071,0.168-0.104,0.257H18.548z"/>
		<path fill="#009640" d="M20.295,9.704c0.01-0.004,0.02-0.008,0.03-0.014l0,0c-0.007,0.004-0.014,0.006-0.021,0.01
			C20.301,9.701,20.298,9.703,20.295,9.704"/>
		<path fill="#009640" d="M20.165,9.763c0.02-0.008,0.04-0.019,0.06-0.027c-0.011,0.005-0.023,0.01-0.035,0.016
			C20.181,9.755,20.173,9.759,20.165,9.763"/>
		<path fill="#009640" d="M15.381,9.565c-0.028,0.018-0.056,0.034-0.085,0.051C15.325,9.6,15.353,9.583,15.381,9.565"/>
		<path fill="#009640" d="M20.068,9.798c-0.021,0.008-0.043,0.016-0.064,0.023C20.025,9.813,20.047,9.806,20.068,9.798"/>
		<path fill="#009640" d="M20.546,7.828c-0.005,0.015-0.011,0.03-0.017,0.043C20.535,7.858,20.541,7.843,20.546,7.828"/>
		<path fill="#009640" d="M20.479,8c0-0.001,0.001-0.002,0.002-0.004c0.01-0.023,0.02-0.046,0.029-0.072l0,0
			c0-0.001,0-0.002,0-0.003c-0.01,0.028-0.021,0.055-0.033,0.081C20.479,8.001,20.479,8.001,20.479,8"/>
		<path fill="#009640" d="M18.931,8.94c-0.02-0.01-0.039-0.019-0.058-0.029C18.892,8.922,18.911,8.931,18.931,8.94"/>
		<path fill="#009640" d="M20.461,8.042c-0.009,0.021-0.018,0.041-0.027,0.062C20.443,8.083,20.452,8.063,20.461,8.042"/>
		<path fill="#009640" d="M19.911,9.85c-0.02,0.005-0.039,0.012-0.058,0.017C19.872,9.861,19.892,9.854,19.911,9.85"/>
		<path fill="#009640" d="M16.352,8.53c-0.086,0.148-0.178,0.283-0.274,0.405C16.174,8.813,16.266,8.679,16.352,8.53"/>
		<path fill="#009640" d="M15.718,9.314c-0.031,0.027-0.063,0.054-0.094,0.079C15.655,9.368,15.687,9.342,15.718,9.314"/>
		<path fill="#009640" d="M16.059,8.959c-0.042,0.051-0.084,0.1-0.126,0.146C15.975,9.059,16.017,9.01,16.059,8.959"/>
		<path fill="#009640" d="M15.208,9.664c-0.026,0.014-0.054,0.027-0.081,0.04C15.154,9.691,15.181,9.678,15.208,9.664"/>
		<path fill="#009640" d="M14.85,9.816c-0.019,0.007-0.038,0.012-0.057,0.019C14.813,9.828,14.832,9.823,14.85,9.816"/>
		<path fill="#009640" d="M15.03,9.748c-0.024,0.011-0.048,0.02-0.073,0.029C14.982,9.768,15.006,9.759,15.03,9.748"/>
		<path fill="#009640" d="M15.551,9.448c-0.03,0.021-0.06,0.044-0.089,0.065C15.492,9.492,15.521,9.47,15.551,9.448"/>
		<path fill="#009640" d="M15.883,9.157c-0.034,0.034-0.067,0.069-0.102,0.102C15.815,9.227,15.849,9.191,15.883,9.157"/>
		<path fill="#009640" d="M18.845,8.895c-0.015-0.01-0.029-0.02-0.043-0.031C18.815,8.875,18.83,8.885,18.845,8.895"/>
		<path fill="#009640" d="M18.533,8.358c-0.001-0.01-0.003-0.019-0.004-0.028C18.53,8.34,18.532,8.349,18.533,8.358"/>
		<path fill="#009640" d="M19.751,9.893c-0.017,0.004-0.034,0.008-0.052,0.012C19.717,9.9,19.734,9.896,19.751,9.893"/>
		<path fill="#009640" d="M18.519,8.262c-0.001-0.009-0.002-0.019-0.003-0.028C18.517,8.243,18.518,8.253,18.519,8.262"/>
		<path fill="#009640" d="M18.554,8.45c-0.002-0.01-0.005-0.018-0.007-0.026C18.549,8.433,18.551,8.44,18.554,8.45"/>
		<path fill="#009640" d="M19.066,9.967L19.066,9.967c-0.053,0-0.104-0.002-0.155-0.004C18.962,9.965,19.013,9.967,19.066,9.967"/>
		<path fill="#009640" d="M18.511,8.163c-0.001-0.01-0.001-0.021-0.002-0.031C18.509,8.143,18.51,8.153,18.511,8.163"/>
		<path fill="#009640" d="M19.262,9.961c-0.013,0-0.024,0.002-0.036,0.002C19.238,9.963,19.249,9.961,19.262,9.961"/>
		<path fill="#009640" d="M19.591,9.923c-0.016,0.002-0.032,0.006-0.048,0.008C19.559,9.929,19.575,9.925,19.591,9.923"/>
		<path fill="#009640" d="M19.429,9.945C19.414,9.947,19.4,9.95,19.385,9.95C19.4,9.95,19.414,9.947,19.429,9.945"/>
		<path fill="#009640" d="M18.71,8.774c-0.008-0.011-0.017-0.021-0.025-0.031C18.693,8.754,18.702,8.764,18.71,8.774"/>
		<path fill="#009640" d="M18.771,8.837c-0.01-0.01-0.022-0.02-0.033-0.029C18.75,8.817,18.761,8.827,18.771,8.837"/>
		<path fill="#009640" d="M18.581,8.54c-0.003-0.01-0.007-0.019-0.01-0.028C18.574,8.521,18.578,8.53,18.581,8.54"/>
		<path fill="#009640" d="M18.658,8.702c-0.006-0.01-0.012-0.02-0.019-0.03C18.646,8.683,18.652,8.692,18.658,8.702"/>
		<path fill="#009640" d="M16.51,8.226c0.024-0.052,0.049-0.104,0.072-0.158h0C16.559,8.121,16.535,8.174,16.51,8.226"/>
		<path fill="#009640" d="M18.616,8.623c-0.004-0.009-0.01-0.019-0.014-0.029C18.606,8.604,18.611,8.614,18.616,8.623"/>
		<path fill="#009640" d="M19.916,8.792c-0.02,0.016-0.042,0.029-0.063,0.043c0,0,0.002-0.001,0.003-0.001
			c0.003-0.002,0.007-0.004,0.01-0.007c0.005-0.003,0.011-0.007,0.016-0.011C19.894,8.809,19.905,8.8,19.916,8.792"/>
		<path fill="#009640" d="M17.985,9.72c0.014,0.007,0.029,0.015,0.044,0.022c0.02,0.012,0.039,0.022,0.059,0.031
			c0.006,0.003,0.013,0.006,0.02,0.009c0,0,0,0,0.001,0C18.066,9.763,18.025,9.74,17.985,9.72"/>
		<path fill="#009640" d="M19.822,8.854c-0.02,0.012-0.042,0.024-0.063,0.036c0.009-0.006,0.018-0.01,0.026-0.014
			c0.003-0.002,0.007-0.005,0.01-0.007c0.001,0,0.002-0.001,0.003-0.002C19.808,8.864,19.815,8.859,19.822,8.854"/>
		<path fill="#009640" d="M17.269,8.674c0.013,0.059,0.029,0.116,0.045,0.171C17.297,8.79,17.282,8.732,17.269,8.674"/>
		<path fill="#009640" d="M17.732,9.534c-0.07-0.065-0.134-0.137-0.191-0.217C17.599,9.397,17.663,9.469,17.732,9.534"/>
		<path fill="#009640" d="M17.235,8.475c0.245-0.173,0.517-0.311,0.807-0.407h-0.833C17.209,8.212,17.217,8.348,17.235,8.475"/>
		<path fill="#009640" d="M18.732,9.948c0.049,0.007,0.099,0.011,0.149,0.013C18.831,9.959,18.781,9.955,18.732,9.948"/>
		<path fill="#009640" d="M20.342,8.283c0.002-0.005,0.005-0.009,0.007-0.014c0.001-0.003,0.002-0.006,0.004-0.008
			c-0.008,0.015-0.016,0.029-0.025,0.044C20.333,8.298,20.338,8.29,20.342,8.283"/>
		<path fill="#009640" d="M17.745,9.545c0.035,0.031,0.071,0.062,0.109,0.089C17.816,9.606,17.78,9.576,17.745,9.545"/>
		<path fill="#009640" d="M17.237,8.488c0.009,0.064,0.019,0.126,0.032,0.186C17.255,8.614,17.246,8.552,17.237,8.488"/>
		<path fill="#009640" d="M17.32,8.865c0.035,0.11,0.078,0.209,0.127,0.302C17.398,9.074,17.355,8.976,17.32,8.865"/>
		<path fill="#009640" d="M17.453,9.178c0.025,0.045,0.052,0.087,0.08,0.128C17.505,9.265,17.479,9.223,17.453,9.178"/>
		<path fill="#009640" d="M20.19,8.517c0-0.001,0.001-0.002,0.002-0.003c0.005-0.006,0.01-0.014,0.015-0.02
			c0.005-0.008,0.01-0.016,0.016-0.021c-0.012,0.016-0.023,0.032-0.036,0.048C20.188,8.52,20.189,8.518,20.19,8.517"/>
		<path fill="#009640" d="M19.705,8.915c0.005-0.002,0.011-0.004,0.016-0.006c0.003-0.002,0.007-0.004,0.01-0.006
			c-0.029,0.014-0.059,0.026-0.09,0.038c0.001,0,0.002,0,0.004-0.001C19.666,8.933,19.685,8.924,19.705,8.915"/>
		<path fill="#009640" d="M19.565,8.966c0.019-0.005,0.036-0.011,0.053-0.017c0.001,0,0.003,0,0.004-0.001
			c-0.03,0.011-0.061,0.019-0.092,0.026c0.001,0,0.003,0,0.004-0.001C19.546,8.971,19.556,8.969,19.565,8.966"/>
		<path fill="#009640" d="M18.956,8.951C18.977,8.959,19,8.967,19.024,8.973l0,0c-0.017-0.004-0.033-0.01-0.049-0.016
			C18.969,8.955,18.962,8.953,18.956,8.951"/>
		<path fill="#009640" d="M19.391,8.997c-0.007,0.001-0.014,0-0.021,0.002c-0.004,0-0.007,0-0.011,0
			c-0.029,0.002-0.058,0.005-0.087,0.005c-0.011,0-0.021-0.001-0.032-0.002c0.011,0.001,0.021,0.003,0.032,0.003
			c0.022,0,0.044-0.002,0.067-0.004c0.008,0,0.017,0,0.024,0C19.371,8.999,19.38,8.999,19.391,8.997L19.391,8.997"/>
		<polyline fill="#009640" points="19.136,8.995 19.141,8.996 19.143,8.996 19.129,8.993 19.136,8.995 		"/>
		<path fill="#009640" d="M20.134,8.586c0.008-0.008,0.014-0.018,0.021-0.026c0.001-0.001,0.001-0.001,0.002-0.003
			c-0.013,0.017-0.025,0.031-0.039,0.048C20.123,8.598,20.129,8.593,20.134,8.586"/>
		<path fill="#009640" d="M19.47,8.986c-0.005,0.001-0.011,0.002-0.015,0.002c-0.014,0.001-0.027,0.005-0.041,0.007
			c0.012-0.002,0.024-0.004,0.035-0.006c0.011,0,0.021-0.002,0.032-0.004c0.008-0.001,0.015-0.003,0.022-0.005
			C19.493,8.982,19.481,8.984,19.47,8.986"/>
		<path fill="#009640" d="M17.857,9.636c0.038,0.027,0.077,0.054,0.117,0.076C17.934,9.689,17.895,9.663,17.857,9.636"/>
		<path fill="#009640" d="M18.417,9.893c0.046,0.011,0.094,0.021,0.142,0.03C18.511,9.913,18.463,9.903,18.417,9.893"/>
		<path fill="#009640" d="M19.945,8.771c0.002-0.002,0.004-0.004,0.006-0.004c0.012-0.01,0.023-0.02,0.034-0.03
			c0.005-0.005,0.011-0.009,0.016-0.014c0.003-0.003,0.006-0.006,0.009-0.008C19.989,8.733,19.967,8.753,19.945,8.771"/>
		<path fill="#009640" d="M16.38,8.479c0.032-0.057,0.063-0.116,0.094-0.177C16.443,8.362,16.412,8.422,16.38,8.479"/>
		<path fill="#009640" d="M20.299,8.356c-0.011,0.018-0.021,0.033-0.031,0.05c0.009-0.015,0.018-0.028,0.026-0.042
			c0-0.001,0.001-0.002,0.001-0.002C20.296,8.36,20.297,8.358,20.299,8.356"/>
		<path fill="#009640" d="M20.38,8.212c0.002-0.003,0.003-0.007,0.005-0.011c0.002-0.005,0.005-0.011,0.008-0.016
			c0.009-0.016,0.017-0.032,0.024-0.049c-0.011,0.023-0.023,0.046-0.035,0.068C20.382,8.208,20.381,8.21,20.38,8.212"/>
		<path fill="#009640" d="M18.574,9.925c0.046,0.008,0.092,0.016,0.139,0.021C18.666,9.94,18.62,9.933,18.574,9.925"/>
		<path fill="#009640" d="M20.039,8.688c0.002-0.002,0.004-0.004,0.006-0.006c0.009-0.01,0.019-0.021,0.028-0.03
			c0.004-0.004,0.008-0.008,0.013-0.013C20.07,8.656,20.055,8.673,20.039,8.688"/>
		<polyline fill="#009640" points="14.382,8.969 14.376,8.971 14.382,8.969 		"/>
		<polyline fill="#009640" points="14.463,8.944 14.462,8.945 14.463,8.944 		"/>
		<path fill="#009640" d="M18.125,9.79c0.02,0.008,0.04,0.018,0.059,0.024c0.004,0.002,0.008,0.004,0.012,0.005
			c0.029,0.012,0.059,0.023,0.088,0.033c0.001,0,0.003,0,0.005,0.002c0.035,0.01,0.07,0.021,0.106,0.03
			C18.301,9.86,18.211,9.828,18.125,9.79"/>
		<polyline fill="#009640" points="15.748,6.067 15.748,6.067 15.748,6.065 15.748,6.067 		"/>
		<path fill="#76B82A" d="M13.01,9.812c-0.023-0.009-0.045-0.019-0.067-0.029C12.964,9.793,12.986,9.803,13.01,9.812"/>
		<path fill="#76B82A" d="M12.911,9.769c-0.018-0.01-0.036-0.02-0.054-0.028C12.875,9.749,12.893,9.759,12.911,9.769"/>
		<path fill="#76B82A" d="M12.818,9.72c-0.014-0.009-0.027-0.017-0.04-0.025C12.791,9.703,12.804,9.711,12.818,9.72"/>
		<path fill="#76B82A" d="M13.114,9.851c-0.028-0.01-0.056-0.02-0.083-0.029C13.058,9.831,13.085,9.841,13.114,9.851"/>
		<path fill="#76B82A" d="M12.729,9.664c-0.009-0.006-0.018-0.013-0.026-0.02C12.712,9.651,12.721,9.657,12.729,9.664"/>
		<polyline fill="#76B82A" points="12.646,9.604 12.637,9.595 12.646,9.604 		"/>
		<path fill="#76B82A" d="M13.486,6.95c0.025-0.119,0.057-0.271,0.101-0.437c-0.001,0-0.002,0-0.002,0.001
			c-0.044,0.165-0.076,0.315-0.101,0.435c-0.034,0.164-0.08,0.374-0.11,0.598c-0.001,0.008-0.002,0.015-0.003,0.021
			c-0.003,0.023-0.006,0.044-0.008,0.067c-0.057,0.479-0.038,0.998,0.281,1.235C13.156,8.504,13.374,7.478,13.486,6.95"/>
		<path fill="#76B82A" d="M16.582,8.067H15.84c0.003,0.062,0.005,0.122,0.005,0.186c0,0.394-0.065,0.769-0.181,1.105
			c-0.523,0.436-1.14,0.607-1.768,0.607c-0.277,0-0.539-0.035-0.774-0.111c0.235,0.076,0.498,0.112,0.776,0.112
			c0.304,0,0.604-0.042,0.893-0.132c0.02-0.007,0.039-0.012,0.057-0.019c0.036-0.012,0.072-0.026,0.107-0.039
			c0.024-0.01,0.049-0.019,0.073-0.029c0.032-0.015,0.065-0.028,0.097-0.044c0.027-0.013,0.054-0.026,0.081-0.04
			c0.03-0.016,0.059-0.031,0.088-0.048s0.058-0.033,0.085-0.051c0.028-0.017,0.054-0.034,0.081-0.052
			c0.03-0.021,0.06-0.044,0.09-0.065c0.024-0.017,0.049-0.035,0.072-0.055c0.032-0.025,0.063-0.052,0.094-0.079
			c0.021-0.019,0.042-0.036,0.063-0.056c0.034-0.032,0.068-0.067,0.102-0.102c0.017-0.018,0.034-0.034,0.049-0.052
			c0.043-0.047,0.085-0.096,0.126-0.146c0.006-0.008,0.013-0.015,0.019-0.023c0.096-0.122,0.188-0.257,0.274-0.405
			c0.01-0.017,0.019-0.034,0.029-0.052c0.032-0.057,0.063-0.116,0.094-0.177c0.012-0.025,0.024-0.051,0.036-0.076
			C16.535,8.174,16.559,8.121,16.582,8.067"/>
		<path fill="#E94E1B" d="M20.617,9.52c-0.002,0.002-0.005,0.004-0.007,0.006c0.02-0.014,0.041-0.027,0.062-0.041
			c-0.001,0.001-0.003,0.002-0.004,0.002C20.651,9.498,20.634,9.509,20.617,9.52"/>
		<path fill="#E94E1B" d="M20.464,9.616c-0.002,0.001-0.003,0.002-0.005,0.003c0.015-0.01,0.03-0.018,0.046-0.026
			c-0.001,0.001-0.002,0.001-0.003,0.001C20.488,9.602,20.476,9.608,20.464,9.616"/>
		<path fill="#E94E1B" d="M21.086,9.119c0,0,0,0.001-0.001,0.002c0.021-0.021,0.041-0.044,0.061-0.068
			c0,0.002-0.001,0.002-0.002,0.002C21.125,9.077,21.105,9.098,21.086,9.119"/>
		<path fill="#E94E1B" d="M21.019,4.064c0,0-0.001,0-0.001,0c-0.002-0.001-0.005-0.001-0.008-0.002h0l-0.016-0.003
			c-0.125-0.032-0.255-0.052-0.393-0.064c-0.001,0-0.001,0-0.002,0C19.792,4.219,19.147,4.77,18.772,5.5
			c-0.092,0.178-0.167,0.369-0.224,0.567h0.343c0.21-0.564,0.574-1.123,1.24-1.123c0.135,0,0.248,0.022,0.343,0.062
			c-0.095-0.04-0.206-0.061-0.34-0.061c0.167,0,0.302,0.034,0.408,0.094c0.019,0.011,0.038,0.023,0.055,0.036
			c-0.016-0.012-0.034-0.023-0.05-0.032c0.018,0.01,0.038,0.022,0.055,0.035v0c0.5,0.363,0.282,1.385,0.179,1.873
			c-0.021,0.098-0.045,0.212-0.076,0.338c0.723-0.5,1.243-1.272,1.413-2.168c-0.044-0.15-0.104-0.282-0.176-0.399
			c-0.003-0.006-0.007-0.013-0.011-0.02c-0.015-0.022-0.029-0.043-0.044-0.064c-0.008-0.012-0.017-0.023-0.025-0.033
			c-0.014-0.019-0.027-0.036-0.042-0.053c-0.006-0.008-0.013-0.015-0.02-0.022c-0.006-0.007-0.012-0.014-0.019-0.021
			c-0.013-0.014-0.023-0.026-0.035-0.039c-0.027-0.026-0.055-0.052-0.083-0.077L21.662,4.39c-0.019-0.016-0.038-0.032-0.059-0.048
			c-0.011-0.008-0.022-0.017-0.034-0.024c-0.038-0.028-0.079-0.054-0.12-0.078c-0.008-0.004-0.018-0.01-0.025-0.014v0
			c-0.022-0.012-0.044-0.024-0.068-0.035c0,0,0-0.001,0-0.001c-0.005-0.002-0.01-0.005-0.017-0.007
			c-0.011-0.005-0.021-0.011-0.034-0.016C21.3,4.163,21.294,4.16,21.289,4.158c-0.013-0.005-0.027-0.01-0.04-0.016
			c-0.039-0.017-0.079-0.032-0.12-0.045c-0.002-0.001-0.004-0.002-0.007-0.003C21.088,4.084,21.054,4.073,21.019,4.064"/>
		<path fill="#E94E1B" d="M20.773,9.407c-0.004,0.003-0.009,0.007-0.013,0.011c0.02-0.017,0.04-0.03,0.059-0.046
			c-0.001,0-0.002,0-0.002,0.001C20.802,9.386,20.787,9.396,20.773,9.407"/>
		<path fill="#E94E1B" d="M21.308,8.85L21.308,8.85c0.037-0.049,0.072-0.099,0.106-0.151C21.38,8.751,21.344,8.801,21.308,8.85"/>
		<path fill="#E94E1B" d="M20.952,9.255c0,0-0.001,0.001-0.001,0.002c0.014-0.014,0.028-0.028,0.042-0.043
			c0,0.001-0.001,0.002-0.002,0.002C20.978,9.229,20.965,9.242,20.952,9.255"/>
		<polyline fill="#E94E1B" points="20.15,9.768 20.146,9.769 20.157,9.766 20.153,9.767 20.15,9.768 		"/>
		<path fill="#E94E1B" d="M20.309,9.698c-0.001,0-0.003,0.002-0.004,0.002c0.007-0.004,0.014-0.006,0.021-0.01
			c0.002-0.001,0.004-0.002,0.007-0.004c-0.002,0.001-0.003,0.002-0.004,0.002C20.322,9.691,20.315,9.694,20.309,9.698"/>
		<path fill="#E94E1B" d="M21.215,8.971c0,0.001-0.001,0.002-0.001,0.002c0.024-0.029,0.048-0.062,0.073-0.092
			c0,0-0.001,0.001-0.001,0.002C21.262,8.911,21.238,8.941,21.215,8.971"/>
		<path fill="#E94E1B" d="M21.249,4.142l0.006,0.002c0.012,0.004,0.023,0.008,0.034,0.014c0.005,0.002,0.011,0.005,0.017,0.007h0
			c-0.019-0.009-0.04-0.017-0.06-0.025c-0.037-0.015-0.075-0.029-0.113-0.041c-0.001,0-0.002-0.001-0.004-0.001
			C21.17,4.11,21.209,4.125,21.249,4.142"/>
		<path fill="#E94E1B" d="M21.339,4.182c0.006,0.002,0.012,0.005,0.017,0.007c0.024,0.012,0.046,0.024,0.069,0.036
			c0.008,0.005,0.017,0.01,0.025,0.015l0.008,0.004c0.034,0.02,0.068,0.042,0.1,0.065l0.011,0.008l0,0
			c0.012,0.007,0.023,0.016,0.033,0.024c0.021,0.016,0.04,0.032,0.059,0.048l0.002,0.003l0.006,0.005
			c0.027,0.022,0.053,0.047,0.078,0.072c0.011,0.012,0.022,0.025,0.035,0.039c0.006,0.006,0.013,0.014,0.019,0.021
			c0.007,0.007,0.013,0.014,0.02,0.021c0.014,0.018,0.027,0.036,0.041,0.054c0.008,0.01,0.017,0.021,0.025,0.033
			c0.015,0.021,0.029,0.042,0.044,0.064c0.003,0.007,0.007,0.014,0.011,0.02c0.223,0.36,0.325,0.872,0.256,1.57
			c0.093-0.945-0.125-1.546-0.531-1.897h0c-0.033-0.029-0.067-0.056-0.103-0.082c0,0-0.001-0.001-0.002-0.001
			c-0.035-0.025-0.07-0.047-0.106-0.069c-0.007-0.004-0.015-0.008-0.023-0.012c-0.026-0.015-0.052-0.029-0.08-0.042
			c-0.012-0.006-0.023-0.011-0.035-0.017C21.325,4.174,21.332,4.178,21.339,4.182"/>
		<path fill="#E94E1B" d="M21.107,4.09l0.015,0.004c-0.005-0.002-0.011-0.003-0.016-0.005c-0.016-0.005-0.032-0.01-0.048-0.014
			C21.074,4.08,21.091,4.084,21.107,4.09"/>
		<path fill="#E94E1B" d="M21.004,4.06c-0.127-0.033-0.263-0.055-0.403-0.066c0.137,0.012,0.268,0.032,0.393,0.064L21.004,4.06z"/>
		<path fill="#E94E1B" d="M20.251,8.431c0.002-0.003,0.003-0.005,0.005-0.008c-0.003,0.005-0.006,0.009-0.009,0.015L20.251,8.431z"
			/>
		<path fill="#E94E1B" d="M19.822,8.854c-0.007,0.005-0.015,0.01-0.022,0.014c0.01-0.006,0.02-0.012,0.029-0.018
			c0.009-0.006,0.018-0.011,0.027-0.017c-0.001,0-0.002,0.001-0.003,0.001C19.843,8.843,19.833,8.849,19.822,8.854"/>
		<path fill="#E94E1B" d="M19.731,8.903c-0.003,0.002-0.006,0.004-0.01,0.006c0.011-0.006,0.021-0.011,0.031-0.015
			c0.012-0.006,0.023-0.012,0.034-0.018c-0.009,0.004-0.018,0.008-0.026,0.014C19.75,8.895,19.74,8.899,19.731,8.903"/>
		<path fill="#E94E1B" d="M20.013,8.712c0.002-0.002,0.005-0.004,0.008-0.006c0.008-0.008,0.016-0.016,0.024-0.023
			c-0.002,0.002-0.004,0.004-0.006,0.006C20.03,8.696,20.022,8.704,20.013,8.712"/>
		<polyline fill="#E94E1B" points="20.481,7.996 20.479,8 20.481,7.996 		"/>
		<polyline fill="#E94E1B" points="20.387,8.2 20.394,8.186 20.386,8.201 20.387,8.2 		"/>
		<polyline fill="#E94E1B" points="20.51,7.924 20.51,7.924 20.51,7.924 		"/>
		<path fill="#E94E1B" d="M19.882,8.816c0.004-0.003,0.009-0.007,0.015-0.01c0.009-0.007,0.017-0.013,0.025-0.02
			c-0.002,0.002-0.004,0.003-0.006,0.005C19.905,8.8,19.894,8.809,19.882,8.816"/>
		<path fill="#E94E1B" d="M19.531,8.975c-0.009,0.002-0.019,0.004-0.028,0.006c-0.007,0.002-0.014,0.004-0.022,0.005
			c0.002-0.001,0.006-0.001,0.008-0.001c0.015-0.004,0.029-0.006,0.044-0.01c0.001,0,0.001-0.001,0.002-0.001
			C19.534,8.975,19.533,8.975,19.531,8.975"/>
		<path fill="#E94E1B" d="M20.073,8.652c0.01-0.01,0.019-0.02,0.028-0.03c-0.005,0.006-0.01,0.012-0.016,0.018
			C20.082,8.645,20.078,8.648,20.073,8.652"/>
		<path fill="#E94E1B" d="M20.137,8.584c0.003-0.004,0.006-0.008,0.008-0.012c0.003-0.004,0.007-0.008,0.01-0.013
			c-0.007,0.009-0.014,0.019-0.021,0.026C20.135,8.586,20.136,8.584,20.137,8.584"/>
		<polyline fill="#E94E1B" points="20.35,8.27 20.342,8.283 20.35,8.27 		"/>
		<path fill="#E94E1B" d="M19.271,9.005c0.002,0,0.004,0,0.006,0c0.021,0,0.041-0.002,0.061-0.004
			C19.315,9.003,19.293,9.005,19.271,9.005z"/>
		<path fill="#E94E1B" d="M19.96,8.758c0.009-0.007,0.017-0.014,0.024-0.021c-0.011,0.011-0.022,0.021-0.035,0.03
			C19.954,8.763,19.957,8.761,19.96,8.758"/>
		<polyline fill="#E94E1B" points="20.295,8.362 20.299,8.357 20.304,8.348 20.299,8.356 20.295,8.362 		"/>
		<path fill="#E94E1B" d="M19.565,8.966c0.003-0.001,0.005-0.001,0.008-0.002c0.014-0.005,0.028-0.009,0.041-0.013
			c0.001-0.001,0.003-0.001,0.004-0.002C19.602,8.955,19.584,8.961,19.565,8.966"/>
		<path fill="#E94E1B" d="M19.645,8.94c0.002-0.002,0.005-0.002,0.008-0.004c0.015-0.006,0.03-0.012,0.044-0.018
			c0.002-0.002,0.005-0.002,0.007-0.004C19.685,8.924,19.666,8.933,19.645,8.94"/>
		<path fill="#E94E1B" d="M20.201,8.502c0.002-0.003,0.004-0.006,0.006-0.008c-0.005,0.006-0.01,0.014-0.016,0.02L20.201,8.502z"/>
		<path fill="#E94E1B" d="M19.415,8.995c-0.008,0-0.016,0.002-0.024,0.002c0,0,0,0-0.001,0c0.003,0,0.006,0,0.008,0
			c0.017-0.002,0.035-0.004,0.052-0.007c0,0,0,0,0-0.001C19.438,8.991,19.426,8.993,19.415,8.995"/>
		<path fill="none" stroke="#F9B233" stroke-width="0" stroke-linecap="round" stroke-linejoin="round" d="M21.355,4.189
			c-0.005-0.002-0.01-0.005-0.017-0.007"/>
		
			<line fill="none" stroke="#F9B233" stroke-width="0" stroke-linecap="round" stroke-linejoin="round" x1="21.122" y1="4.094" x2="21.122" y2="4.094"/>
		<polyline fill="none" stroke="#F9B233" stroke-width="0" stroke-linecap="round" stroke-linejoin="round" points="21.122,4.094 
			21.122,4.094 21.128,4.097 		"/>
		<path fill="none" stroke="#F9B233" stroke-width="0" stroke-linecap="round" stroke-linejoin="round" d="M21.249,4.142
			c-0.039-0.017-0.079-0.031-0.12-0.044"/>
		<path fill="none" stroke="#F9B233" stroke-width="0" stroke-linecap="round" stroke-linejoin="round" d="M21.748,4.47
			c0.011,0.012,0.022,0.025,0.035,0.039c0.006,0.007,0.013,0.014,0.019,0.021c0.007,0.007,0.013,0.014,0.02,0.021
			c0.014,0.018,0.028,0.035,0.042,0.054c0.008,0.01,0.017,0.021,0.025,0.033c0.015,0.021,0.029,0.042,0.044,0.064
			c0.003,0.007,0.007,0.014,0.011,0.02"/>
		<path fill="none" stroke="#F9B233" stroke-width="0" stroke-linecap="round" stroke-linejoin="round" d="M21.603,4.342
			c0.021,0.016,0.04,0.032,0.059,0.048l0.002,0.003"/>
		
			<line fill="none" stroke="#F9B233" stroke-width="0" stroke-linecap="round" stroke-linejoin="round" x1="20.599" y1="3.994" x2="20.601" y2="3.994"/>
		<path fill="none" stroke="#F9B233" stroke-width="0" stroke-linecap="round" stroke-linejoin="round" d="M21.305,4.166
			C21.3,4.163,21.294,4.16,21.289,4.158"/>
		<path fill="none" stroke="#F9B233" stroke-width="0" stroke-linecap="round" stroke-linejoin="round" d="M20.601,3.994
			c0.137,0.012,0.268,0.032,0.393,0.064"/>
		<path fill="#F9B233" d="M19.616,5.079c0.149-0.084,0.32-0.134,0.518-0.134c0.135,0,0.246,0.021,0.34,0.061
			c-0.095-0.04-0.208-0.062-0.343-0.062c-0.666,0-1.03,0.559-1.24,1.123h0.002C19.042,5.67,19.265,5.278,19.616,5.079"/>
		<path fill="#F9B233" d="M21.019,4.064c0.035,0.009,0.069,0.02,0.103,0.03L21.107,4.09c-0.016-0.006-0.033-0.01-0.049-0.015
			c-0.011-0.003-0.022-0.006-0.033-0.01c-0.003-0.001-0.006-0.002-0.009-0.002L21.01,4.061c0.003,0.001,0.005,0.002,0.007,0.002
			C21.018,4.063,21.019,4.064,21.019,4.064"/>
		<path fill="#F9B233" d="M20.601,5.078L20.601,5.078c-0.017-0.013-0.036-0.025-0.054-0.035c0.017,0.01,0.034,0.021,0.05,0.032
			C20.598,5.076,20.6,5.077,20.601,5.078"/>
		<polyline fill="#F9B233" points="20.242,8.443 20.251,8.431 20.248,8.438 20.242,8.443 		"/>
		<path fill="#F9B233" d="M20.01,8.715c-0.003,0.002-0.006,0.005-0.009,0.008c0.006-0.006,0.013-0.011,0.02-0.017
			c-0.002,0.002-0.005,0.004-0.008,0.006C20.012,8.714,20.011,8.714,20.01,8.715"/>
		<path fill="#F9B233" d="M19.796,8.87c0.011-0.006,0.022-0.013,0.032-0.02C19.819,8.856,19.81,8.862,19.8,8.868
			C19.799,8.869,19.798,8.87,19.796,8.87"/>
		<polyline fill="#F9B233" points="20.19,8.517 20.201,8.502 20.192,8.514 20.19,8.517 		"/>
		<polyline fill="#F9B233" points="20.294,8.364 20.299,8.356 20.295,8.362 20.294,8.364 		"/>
		<path fill="#F9B233" d="M19.866,8.827c0.01-0.006,0.02-0.014,0.031-0.021c-0.005,0.003-0.01,0.007-0.015,0.01
			C19.877,8.82,19.872,8.824,19.866,8.827"/>
		<path fill="#F9B233" d="M19.641,8.941c-0.006,0.002-0.012,0.005-0.018,0.007c-0.001,0.001-0.003,0.001-0.004,0.001
			c-0.001,0.001-0.003,0.001-0.004,0.002c0.013-0.004,0.025-0.009,0.038-0.015c-0.003,0.002-0.006,0.002-0.008,0.004
			C19.644,8.941,19.643,8.941,19.641,8.941"/>
		<path fill="#F9B233" d="M19.945,8.771c-0.004,0.003-0.007,0.006-0.011,0.009c0.009-0.007,0.018-0.014,0.027-0.021
			c-0.003,0.003-0.007,0.005-0.01,0.009C19.949,8.767,19.947,8.769,19.945,8.771"/>
		<path fill="#F9B233" d="M19.536,8.974c0,0-0.001,0.001-0.002,0.001c0.013-0.004,0.027-0.007,0.04-0.011
			c-0.002,0.001-0.005,0.001-0.008,0.002C19.556,8.969,19.546,8.971,19.536,8.974"/>
		<path fill="#F9B233" d="M21.569,4.317c0.012,0.008,0.023,0.016,0.034,0.024C21.593,4.333,21.582,4.325,21.569,4.317L21.569,4.317z
			"/>
		<path fill="#F9B233" d="M21.144,9.055c-0.004,0.004-0.008,0.008-0.011,0.012c-0.016,0.018-0.031,0.035-0.046,0.053
			C21.105,9.098,21.125,9.077,21.144,9.055"/>
		<path fill="#F9B233" d="M20.991,9.216c-0.002,0.002-0.004,0.004-0.006,0.006c-0.011,0.011-0.021,0.022-0.033,0.033
			C20.965,9.242,20.978,9.229,20.991,9.216"/>
		<path fill="#F9B233" d="M21.942,4.721c0.072,0.117,0.132,0.249,0.176,0.399c-0.169,0.896-0.689,1.667-1.413,2.168l0,0V7.286
			c0,0,0,0.002,0,0.002c-0.041,0.168-0.092,0.354-0.159,0.54c-0.005,0.015-0.011,0.03-0.017,0.043
			c-0.006,0.018-0.012,0.033-0.019,0.049c0,0.001,0,0.002,0,0.003l0,0c-0.009,0.025-0.02,0.048-0.029,0.072
			c0,0.002-0.001,0.003-0.002,0.004c0,0.001,0,0.001-0.001,0.003c-0.005,0.014-0.011,0.025-0.017,0.039
			c-0.009,0.021-0.018,0.041-0.027,0.062c-0.006,0.012-0.011,0.022-0.016,0.033c-0.008,0.017-0.016,0.033-0.024,0.049
			c-0.002,0.005-0.005,0.01-0.007,0.015c0-0.001,0.001-0.002,0.001-0.002c0.127,0.058,0.248,0.129,0.365,0.204
			c0.202,0.128,0.39,0.278,0.555,0.447c0.037-0.049,0.072-0.099,0.106-0.151c0.289-0.441,0.523-1.012,0.681-1.748
			c0.05-0.236,0.083-0.455,0.104-0.659C22.266,5.593,22.165,5.082,21.942,4.721"/>
		<path fill="#F9B233" d="M20.617,9.52c0.017-0.011,0.034-0.021,0.05-0.033C20.651,9.498,20.634,9.509,20.617,9.52"/>
		<polyline fill="#F9B233" points="20.153,9.767 20.151,9.768 20.15,9.768 20.153,9.767 		"/>
		<path fill="#F9B233" d="M21.339,4.182c-0.007-0.004-0.014-0.007-0.021-0.011c-0.001,0-0.004-0.002-0.006-0.002
			c-0.002-0.001-0.004-0.001-0.005-0.003h0h0C21.317,4.17,21.327,4.176,21.339,4.182"/>
		<path fill="#F9B233" d="M21.215,8.971c0.023-0.029,0.047-0.06,0.07-0.088C21.262,8.911,21.238,8.941,21.215,8.971"/>
		<path fill="#F9B233" d="M20.501,9.594c-0.007,0.004-0.013,0.008-0.019,0.011c-0.006,0.003-0.012,0.007-0.018,0.012
			C20.476,9.608,20.488,9.602,20.501,9.594"/>
		<path fill="#F9B233" d="M20.773,9.407c0.014-0.012,0.029-0.021,0.043-0.034C20.802,9.386,20.787,9.396,20.773,9.407"/>
		<path fill="#F9B233" d="M21.458,4.244L21.45,4.24c0.042,0.023,0.082,0.049,0.12,0.078l-0.011-0.008
			C21.526,4.286,21.492,4.265,21.458,4.244"/>
		<polygon fill="#F9B233" points="20.993,4.058 21.009,4.061 21.009,4.061 21.01,4.061 21.005,4.06 21.004,4.06 		"/>
		<path fill="#F9B233" d="M21.255,4.144l-0.006-0.002c0.013,0.006,0.027,0.01,0.04,0.016C21.278,4.152,21.267,4.148,21.255,4.144"/>
		<path fill="#F9B233" d="M21.424,4.226c0.008,0.004,0.017,0.01,0.025,0.014C21.441,4.235,21.432,4.23,21.424,4.226L21.424,4.226z"
			/>
		<path fill="#F9B233" d="M21.67,4.397l-0.006-0.005c0.029,0.025,0.056,0.051,0.083,0.077C21.723,4.445,21.697,4.42,21.67,4.397"/>
		<path fill="#F9B233" d="M21.356,4.19c0.024,0.011,0.046,0.023,0.068,0.035c-0.023-0.012-0.045-0.024-0.069-0.036
			C21.356,4.189,21.356,4.19,21.356,4.19"/>
		<path fill="#F9B233" d="M19.721,8.909c-0.005,0.002-0.011,0.004-0.016,0.006c-0.002,0.002-0.005,0.002-0.007,0.004
			c0.019-0.008,0.037-0.018,0.055-0.024C19.742,8.898,19.732,8.903,19.721,8.909"/>
		<path fill="#F9B233" d="M20.328,9.688c-0.003,0.002-0.008,0.004-0.012,0.006c-0.002,0.001-0.005,0.002-0.007,0.004
			C20.315,9.694,20.322,9.691,20.328,9.688"/>
		<path fill="#F9B233" d="M19.39,8.997c-0.01,0.002-0.019,0.002-0.027,0.004c0.011-0.002,0.024-0.003,0.036-0.004
			C19.395,8.997,19.393,8.997,19.39,8.997"/>
		<path fill="#F9B233" d="M19.481,8.985c-0.011,0.002-0.021,0.004-0.032,0.004c0,0.001,0,0.001,0,0.001
			c0.005-0.001,0.011-0.001,0.017-0.002c0.008,0,0.015-0.003,0.023-0.004C19.487,8.984,19.484,8.984,19.481,8.985"/>
		<polyline fill="#F9B233" points="19.271,9.005 19.277,9.005 19.271,9.005 19.271,9.005 		"/>
		<polyline fill="#F9B233" points="20.145,8.572 20.137,8.584 20.145,8.572 		"/>
		<polyline fill="#009640" points="19.141,8.996 19.136,8.995 19.141,8.996 		"/>
		<path fill="#009640" d="M21.176,9.018c0.013-0.016,0.024-0.029,0.037-0.045c0,0,0.001-0.001,0.001-0.002
			c0.023-0.029,0.047-0.06,0.07-0.088c0-0.001,0-0.002,0.001-0.002c0.007-0.011,0.015-0.021,0.022-0.03
			C21.266,8.909,21.221,8.965,21.176,9.018"/>
		<path fill="#009640" d="M20.532,9.575c0.026-0.017,0.052-0.034,0.078-0.05c0.002-0.002,0.005-0.004,0.007-0.006
			c0.017-0.011,0.034-0.021,0.05-0.033c0.001,0,0.003-0.001,0.004-0.002c0.002-0.002,0.005-0.004,0.008-0.007
			C20.63,9.514,20.582,9.544,20.532,9.575"/>
		<path fill="#009640" d="M20.689,9.472c0.024-0.018,0.048-0.036,0.071-0.054c0.004-0.004,0.008-0.008,0.013-0.011
			c0.014-0.012,0.028-0.021,0.043-0.034c0.001-0.001,0.002-0.001,0.003-0.001c0.006-0.006,0.013-0.012,0.019-0.017
			C20.789,9.396,20.74,9.436,20.689,9.472"/>
		<path fill="#009640" d="M20.309,9.698c0.002-0.002,0.005-0.003,0.007-0.004c-0.042,0.02-0.083,0.038-0.126,0.057
			c0.012-0.006,0.023-0.011,0.035-0.016c0.024-0.011,0.048-0.02,0.071-0.031c0.003-0.001,0.006-0.003,0.009-0.004
			C20.306,9.7,20.307,9.698,20.309,9.698"/>
		<path fill="#009640" d="M20.985,9.222c-0.032,0.031-0.065,0.063-0.1,0.092c0.022-0.02,0.043-0.038,0.065-0.057
			c0-0.001,0.001-0.002,0.001-0.002C20.963,9.244,20.974,9.232,20.985,9.222"/>
		<path fill="#009640" d="M20.151,9.768c-0.057,0.022-0.114,0.044-0.172,0.062c-0.377-0.21-0.702-0.504-0.955-0.856
			C19,8.967,18.977,8.959,18.956,8.951c-0.003-0.001-0.005-0.002-0.009-0.004c-0.005-0.002-0.01-0.005-0.015-0.007
			c-0.02-0.01-0.039-0.019-0.058-0.029c-0.01-0.005-0.019-0.012-0.029-0.017c-0.015-0.01-0.029-0.02-0.043-0.03
			c-0.01-0.009-0.02-0.018-0.03-0.027s-0.021-0.02-0.033-0.029c-0.01-0.012-0.019-0.022-0.029-0.033
			c-0.008-0.011-0.017-0.021-0.025-0.031c-0.01-0.015-0.018-0.028-0.027-0.041c-0.006-0.01-0.013-0.02-0.019-0.029
			c-0.009-0.017-0.017-0.032-0.024-0.05c-0.004-0.009-0.01-0.019-0.014-0.029c-0.007-0.018-0.014-0.035-0.021-0.055
			c-0.003-0.009-0.007-0.018-0.01-0.027c-0.006-0.02-0.012-0.04-0.017-0.062c-0.002-0.01-0.005-0.018-0.007-0.026
			c-0.006-0.021-0.01-0.044-0.014-0.065c-0.001-0.01-0.003-0.019-0.004-0.027c-0.004-0.023-0.007-0.046-0.01-0.069
			c-0.001-0.009-0.002-0.019-0.003-0.028c-0.002-0.023-0.004-0.047-0.005-0.07c-0.001-0.01-0.001-0.021-0.002-0.031
			c-0.001-0.021-0.002-0.044-0.002-0.064h-0.465c-0.29,0.097-0.562,0.234-0.807,0.407h0c0,0.005,0.002,0.009,0.002,0.014
			c0.009,0.064,0.019,0.126,0.032,0.186l0,0c0.013,0.059,0.029,0.116,0.045,0.171c0.002,0.008,0.004,0.014,0.006,0.021
			c0.035,0.11,0.078,0.209,0.127,0.302c0.002,0.004,0.004,0.007,0.006,0.011c0.025,0.045,0.052,0.087,0.08,0.128
			c0.002,0.004,0.005,0.008,0.008,0.012c0.058,0.08,0.122,0.151,0.191,0.217c0.004,0.003,0.009,0.006,0.013,0.011
			c0.035,0.031,0.071,0.061,0.109,0.089c0.001,0.001,0.002,0.001,0.003,0.002c0.038,0.027,0.077,0.054,0.117,0.076
			c0.001,0.002,0.003,0.002,0.004,0.004c0.001,0,0.002,0.001,0.003,0.002c0.001,0,0.002,0.001,0.003,0.002
			c0.04,0.021,0.081,0.043,0.124,0.063c0.005,0.003,0.011,0.005,0.016,0.008c0.086,0.038,0.176,0.07,0.271,0.095
			c0.006,0.004,0.014,0.006,0.021,0.008c0.046,0.011,0.094,0.021,0.142,0.03c0.005,0,0.01,0.001,0.015,0.002
			c0.046,0.008,0.092,0.016,0.139,0.021c0.006,0.001,0.012,0.002,0.019,0.003c0.049,0.007,0.099,0.011,0.149,0.013
			c0.01,0.001,0.02,0.002,0.029,0.002c0.052,0.002,0.103,0.004,0.155,0.004h0c0.054,0,0.106-0.001,0.16-0.004
			c0.012,0,0.023-0.002,0.036-0.002c0.041-0.002,0.082-0.006,0.123-0.011c0.015,0,0.029-0.003,0.044-0.005
			c0.038-0.005,0.076-0.009,0.114-0.015c0.016-0.002,0.032-0.005,0.048-0.008c0.037-0.006,0.072-0.012,0.108-0.019
			c0.018-0.004,0.035-0.008,0.052-0.012c0.034-0.009,0.068-0.017,0.102-0.026c0.019-0.005,0.039-0.012,0.058-0.017
			c0.031-0.009,0.062-0.019,0.093-0.028c0.021-0.008,0.042-0.016,0.064-0.023c0.026-0.01,0.052-0.019,0.078-0.029
			c0.001,0,0.002,0,0.003-0.001C20.15,9.768,20.151,9.768,20.151,9.768"/>
		<path fill="#009640" d="M21.132,9.066c-0.032,0.036-0.064,0.07-0.097,0.104c0.017-0.016,0.033-0.033,0.049-0.05
			c0.001-0.001,0.001-0.002,0.001-0.002C21.102,9.102,21.117,9.084,21.132,9.066"/>
		<path fill="#009640" d="M20.482,9.604c-0.037,0.022-0.075,0.042-0.113,0.062c0.03-0.015,0.06-0.031,0.089-0.047
			c0.002-0.001,0.003-0.002,0.005-0.003C20.47,9.611,20.476,9.607,20.482,9.604"/>
		<path fill="#009640" d="M20.388,8.197c0,0.001,0,0.002-0.001,0.003c0,0-0.001,0.001-0.001,0.001
			c-0.002,0.004-0.004,0.008-0.005,0.011c-0.008,0.017-0.018,0.034-0.027,0.05c-0.001,0.002-0.002,0.005-0.004,0.008
			c-0.002,0.005-0.005,0.009-0.007,0.014c-0.004,0.007-0.009,0.015-0.014,0.022c-0.008,0.014-0.016,0.028-0.024,0.042
			c-0.002,0.003-0.003,0.007-0.005,0.009c-0.001,0.003-0.003,0.006-0.005,0.008c-0.008,0.014-0.017,0.027-0.026,0.042
			c-0.003,0.006-0.007,0.012-0.011,0.017c-0.002,0.003-0.003,0.005-0.005,0.008c-0.003,0.005-0.006,0.008-0.009,0.013
			c-0.006,0.009-0.013,0.019-0.02,0.029c-0.005,0.006-0.01,0.014-0.016,0.021c-0.002,0.002-0.004,0.005-0.006,0.008
			c-0.003,0.005-0.007,0.01-0.011,0.015c0,0.001-0.001,0.003-0.003,0.004c-0.009,0.012-0.02,0.024-0.03,0.036
			c0,0.002-0.001,0.002-0.002,0.003c-0.003,0.005-0.007,0.009-0.01,0.013c-0.002,0.004-0.005,0.008-0.008,0.012
			c-0.001,0-0.002,0.002-0.003,0.002c-0.005,0.007-0.011,0.012-0.016,0.019c-0.005,0.006-0.011,0.013-0.017,0.018
			c-0.009,0.011-0.019,0.021-0.028,0.03c-0.009,0.01-0.02,0.021-0.028,0.03c-0.008,0.008-0.016,0.016-0.024,0.022
			c-0.007,0.007-0.014,0.012-0.02,0.018c-0.005,0.005-0.011,0.009-0.016,0.014c-0.008,0.008-0.016,0.015-0.024,0.021
			c-0.009,0.008-0.018,0.015-0.027,0.021c-0.003,0.003-0.007,0.006-0.011,0.008c-0.008,0.007-0.017,0.013-0.025,0.02
			c-0.011,0.007-0.021,0.015-0.03,0.021c-0.003,0.003-0.007,0.005-0.01,0.007c-0.009,0.006-0.018,0.011-0.028,0.017
			c-0.01,0.007-0.021,0.014-0.032,0.02c-0.003,0.002-0.007,0.005-0.01,0.007c-0.01,0.006-0.022,0.012-0.034,0.018
			c-0.018,0.007-0.036,0.017-0.055,0.024c-0.015,0.006-0.029,0.012-0.045,0.018c-0.012,0.006-0.025,0.011-0.038,0.015
			c-0.014,0.004-0.027,0.008-0.042,0.013c-0.013,0.004-0.027,0.007-0.04,0.011c-0.015,0.004-0.029,0.006-0.044,0.01
			c-0.008,0.001-0.016,0.004-0.023,0.004C19.902,8.912,20.19,8.585,20.388,8.197c0.127,0.059,0.248,0.13,0.365,0.205
			C20.636,8.327,20.515,8.256,20.388,8.197"/>
		<path fill="#009640" d="M13.641,6.313c0.006-0.017,0.012-0.035,0.017-0.052c-0.015,0.045-0.028,0.089-0.04,0.134
			c0.001-0.005,0.002-0.009,0.003-0.013C13.627,6.359,13.634,6.336,13.641,6.313"/>
		<path fill="#009640" d="M13.691,6.161c0-0.001,0-0.002,0.001-0.003c-0.007,0.02-0.015,0.041-0.021,0.061c0-0.001,0-0.001,0-0.002
			C13.678,6.198,13.685,6.179,13.691,6.161"/>
		<path fill="#009640" d="M13.61,6.421c0.001-0.003,0.002-0.006,0.003-0.01c-0.058,0.205-0.099,0.395-0.129,0.538
			c0.025-0.119,0.057-0.27,0.101-0.435C13.593,6.483,13.601,6.452,13.61,6.421"/>
		<polygon fill="#009640" points="13.856,5.763 13.849,5.776 13.854,5.768 		"/>
		<path fill="#009640" d="M13.798,5.886c-0.006,0.013-0.011,0.025-0.018,0.039c0.005-0.012,0.011-0.024,0.016-0.035
			C13.797,5.889,13.798,5.888,13.798,5.886"/>
		<path fill="#009640" d="M13.735,6.038c-0.006,0.017-0.012,0.033-0.018,0.049c0.005-0.015,0.011-0.03,0.017-0.046
			C13.734,6.04,13.735,6.039,13.735,6.038"/>
		<path fill="#009640" d="M13.935,5.617c-0.005,0.009-0.01,0.018-0.015,0.026c0.003-0.007,0.008-0.014,0.012-0.021
			C13.933,5.621,13.934,5.619,13.935,5.617"/>
		<path fill="#009640" d="M13.37,7.568c0.001-0.007,0.002-0.014,0.003-0.021C13.372,7.555,13.371,7.562,13.37,7.568"/>
		<path fill="#009640" d="M15.665,9.358c0.116-0.337,0.181-0.712,0.181-1.105c0-0.063-0.002-0.124-0.006-0.186h-0.559
			c-0.174,0.389-0.429,0.74-0.817,0.877c0,0,0,0-0.001,0.001c-0.026,0.008-0.053,0.017-0.081,0.023
			c-0.002,0-0.003,0.001-0.005,0.002c-0.009,0.002-0.018,0.004-0.028,0.006c-0.078,0.017-0.16,0.026-0.248,0.026
			c-0.197,0-0.346-0.048-0.458-0.133c-0.318-0.237-0.337-0.756-0.281-1.235c0,0.003-0.001,0.006-0.001,0.01
			c-0.371,0.343-0.812,0.602-1.306,0.736c0.057,0.573,0.269,0.963,0.583,1.213c0.003,0.003,0.006,0.006,0.01,0.009
			c0.018,0.015,0.037,0.027,0.057,0.041c0.008,0.007,0.017,0.014,0.026,0.02c0.016,0.01,0.032,0.021,0.048,0.03
			c0.013,0.009,0.026,0.017,0.04,0.025c0.013,0.006,0.027,0.013,0.04,0.021c0.018,0.009,0.036,0.019,0.054,0.028
			c0.01,0.004,0.021,0.01,0.031,0.014c0.022,0.011,0.044,0.021,0.067,0.029c0.008,0.003,0.015,0.005,0.022,0.01
			c0.027,0.01,0.054,0.02,0.083,0.029c0.003,0.001,0.007,0.002,0.01,0.004c0.234,0.076,0.496,0.111,0.773,0.111
			C14.525,9.966,15.142,9.794,15.665,9.358"/>
		<path fill="#009FE3" d="M12.183,4.547l0.096-0.449L12.183,4.547z"/>
		<path fill="#009FE3" d="M10.105,5.066l2.13-0.968h0L9.724,5.24L9.537,6.12h0.998L10.07,8.308c0.409,0.13,0.836,0.196,1.275,0.18
			l0.477-2.242C11.066,6.178,10.425,5.716,10.105,5.066"/>
		<path fill="#009FE3" d="M13.123,4.867c-0.031,0.035-0.063,0.072-0.094,0.11c-0.007,0.009-0.015,0.018-0.021,0.027
			c-0.017,0.02-0.032,0.042-0.048,0.062c-0.009,0.013-0.019,0.025-0.028,0.037c-0.008,0.011-0.016,0.023-0.024,0.035
			C12.977,5.042,13.049,4.951,13.123,4.867"/>
		<path fill="#009FE3" d="M12.525,5.819c-0.002,0.004-0.004,0.009-0.006,0.013c-0.013,0.03-0.026,0.06-0.039,0.092
			c-0.014,0.035-0.029,0.07-0.043,0.106c-0.007,0.019-0.014,0.038-0.021,0.056c-0.012,0.031-0.023,0.063-0.034,0.094
			c-0.004,0.013-0.008,0.026-0.013,0.037C12.417,6.077,12.47,5.944,12.525,5.819"/>
		<path fill="#009FE3" d="M12.906,5.14c-0.006,0.009-0.013,0.017-0.018,0.026c-0.01,0.015-0.02,0.029-0.03,0.042
			c-0.014,0.021-0.028,0.043-0.042,0.064c-0.01,0.016-0.02,0.031-0.029,0.047c-0.014,0.021-0.027,0.042-0.04,0.065
			c-0.01,0.016-0.02,0.033-0.03,0.05c-0.003,0.005-0.007,0.012-0.009,0.018C12.771,5.341,12.837,5.237,12.906,5.14"/>
		<path fill="#009FE3" d="M12.706,5.457c-0.009,0.015-0.018,0.03-0.026,0.046c-0.01,0.019-0.02,0.037-0.029,0.056
			c-0.012,0.022-0.024,0.045-0.035,0.068c-0.01,0.02-0.021,0.041-0.03,0.061c-0.011,0.022-0.021,0.045-0.033,0.068
			c-0.008,0.018-0.016,0.038-0.025,0.056C12.583,5.687,12.643,5.568,12.706,5.457"/>
		<path fill="#009FE3" d="M13.36,7.646c0-0.004,0.001-0.007,0.001-0.01c0.002-0.023,0.005-0.044,0.008-0.067
			c0.001-0.007,0.002-0.014,0.003-0.021c0.031-0.224,0.077-0.435,0.111-0.599c0.03-0.142,0.071-0.332,0.129-0.537
			c0.001-0.005,0.003-0.011,0.005-0.017c0.012-0.044,0.025-0.088,0.04-0.133c0.005-0.014,0.009-0.028,0.014-0.043
			c0.006-0.02,0.014-0.041,0.021-0.061c0.005-0.014,0.009-0.027,0.014-0.041c0.004-0.01,0.007-0.02,0.011-0.03
			c0.006-0.016,0.011-0.033,0.018-0.049c0.004-0.012,0.01-0.023,0.015-0.035c0.01-0.026,0.02-0.052,0.031-0.078
			c0.006-0.014,0.012-0.026,0.018-0.039c0.002-0.006,0.005-0.011,0.007-0.016c0.014-0.031,0.028-0.063,0.043-0.094
			c0.002-0.004,0.004-0.009,0.007-0.013c0.004-0.009,0.009-0.018,0.014-0.028c0.017-0.031,0.032-0.062,0.05-0.092
			c0.005-0.009,0.01-0.018,0.015-0.026c0.003-0.005,0.006-0.01,0.009-0.015c0.02-0.032,0.04-0.065,0.061-0.097
			c0.007-0.01,0.016-0.02,0.023-0.03c0.021-0.031,0.043-0.061,0.067-0.09c0.008-0.01,0.017-0.02,0.025-0.029
			c0.023-0.028,0.047-0.056,0.073-0.082c0.01-0.009,0.02-0.018,0.03-0.026c0.025-0.024,0.051-0.048,0.079-0.07
			c0.011-0.009,0.022-0.017,0.034-0.024c0.027-0.021,0.056-0.041,0.084-0.059c0.013-0.007,0.026-0.014,0.038-0.021
			c0.03-0.016,0.06-0.031,0.091-0.045c0.004-0.002,0.008-0.005,0.013-0.006c0.003-0.055,0.004-0.108,0.004-0.163
			c0-0.275-0.036-0.542-0.102-0.797l0,0c-0.007,0.001-0.014,0.003-0.021,0.005c-0.017,0.004-0.034,0.008-0.05,0.013
			c-0.016,0.004-0.031,0.009-0.047,0.013c-0.018,0.006-0.036,0.01-0.053,0.016c-0.015,0.004-0.029,0.009-0.043,0.014
			c-0.019,0.006-0.037,0.013-0.056,0.019c-0.013,0.005-0.025,0.009-0.038,0.014c-0.021,0.008-0.04,0.015-0.06,0.022
			c-0.009,0.004-0.019,0.008-0.029,0.012c-0.077,0.033-0.154,0.068-0.229,0.109c-0.006,0.002-0.012,0.006-0.017,0.009
			c-0.021,0.012-0.042,0.023-0.063,0.036c-0.01,0.005-0.02,0.011-0.029,0.017c-0.02,0.013-0.039,0.025-0.059,0.037
			c-0.01,0.007-0.021,0.014-0.031,0.021c-0.019,0.012-0.038,0.026-0.057,0.039c-0.011,0.007-0.021,0.015-0.032,0.023
			c-0.019,0.013-0.037,0.027-0.056,0.042c-0.01,0.008-0.021,0.017-0.031,0.024c-0.019,0.014-0.037,0.03-0.055,0.044
			c-0.01,0.009-0.02,0.018-0.029,0.026c-0.019,0.016-0.038,0.032-0.056,0.048c-0.008,0.009-0.017,0.017-0.026,0.025
			c-0.019,0.018-0.038,0.036-0.057,0.054c-0.005,0.005-0.01,0.011-0.016,0.016c-0.033,0.033-0.066,0.069-0.099,0.105
			c0.301-0.336,0.644-0.562,1.009-0.701c-0.017,1.035-0.773,1.89-1.766,2.059c-0.002,0.005-0.004,0.012-0.006,0.017
			c-0.011,0.032-0.021,0.064-0.032,0.098c-0.002,0.007-0.004,0.013-0.006,0.021c-0.057,0.184-0.109,0.38-0.153,0.589
			c-0.122,0.572-0.155,1.043-0.116,1.434l0,0C12.548,8.247,12.99,7.989,13.36,7.646"/>
		<path fill="#0069B4" d="M12.183,4.547l0.096-0.449v0h-0.044v0l-2.13,0.968c0.32,0.65,0.961,1.112,1.717,1.179l0,0L12.183,4.547z"
			/>
		<path fill="#0069B4" d="M12.37,6.217c-0.001,0.002-0.001,0.004-0.002,0.006l0,0c0.992-0.168,1.749-1.024,1.766-2.059
			c-0.365,0.139-0.708,0.365-1.009,0.701c0,0-0.001,0-0.001,0.001c-0.075,0.083-0.146,0.174-0.216,0.271
			c0,0.001,0,0.001-0.001,0.002c-0.069,0.097-0.135,0.201-0.198,0.313c-0.001,0.001-0.001,0.002-0.002,0.003
			c-0.063,0.111-0.123,0.23-0.179,0.355l-0.002,0.007C12.47,5.944,12.418,6.077,12.37,6.217"/>
		<path fill="#00763C" d="M20.752,8.402c-0.117-0.075-0.238-0.146-0.365-0.204c-0.198,0.387-0.486,0.714-0.921,0.79
			C19.46,8.989,19.455,8.989,19.45,8.99c-0.017,0.003-0.035,0.005-0.052,0.007c-0.012,0.001-0.024,0.002-0.036,0.004
			c-0.008,0-0.017,0-0.025,0c-0.02,0.002-0.04,0.003-0.061,0.004c-0.002,0-0.004,0-0.006,0h0l0,0c-0.011,0-0.021-0.002-0.032-0.002
			c-0.008-0.001-0.015-0.002-0.022-0.002c-0.019-0.002-0.039-0.002-0.058-0.004c-0.005,0-0.011,0-0.016-0.001
			c-0.001,0-0.001,0-0.002,0c-0.001-0.001-0.003-0.001-0.004-0.001c-0.002,0-0.004-0.001-0.007-0.002
			c-0.002,0-0.005-0.001-0.008-0.002c-0.034-0.003-0.067-0.011-0.098-0.019h0l0,0c0.253,0.353,0.578,0.646,0.955,0.856
			c0.058-0.018,0.115-0.039,0.172-0.062c0-0.001,0.001-0.001,0.001-0.001c0.001,0,0.002,0,0.004-0.001
			c0.002-0.001,0.005-0.003,0.008-0.003c0.009-0.004,0.017-0.008,0.025-0.012c0.043-0.019,0.085-0.037,0.126-0.057
			c0.004-0.002,0.009-0.004,0.012-0.006c0.001,0,0.002-0.001,0.004-0.002c0.013-0.007,0.024-0.014,0.037-0.02
			c0.038-0.021,0.076-0.04,0.113-0.063c0.006-0.003,0.013-0.007,0.019-0.011c0.001,0,0.002,0,0.003-0.001
			c0.009-0.006,0.019-0.012,0.028-0.018c0.05-0.031,0.098-0.062,0.146-0.098c0.003-0.002,0.007-0.004,0.01-0.006
			c0.051-0.036,0.1-0.076,0.149-0.116c0.016-0.014,0.031-0.028,0.047-0.042c0.034-0.029,0.067-0.061,0.1-0.092
			c0.002-0.002,0.004-0.004,0.006-0.006c0,0,0.001,0,0.002-0.002c0.015-0.015,0.029-0.029,0.042-0.043
			c0.033-0.034,0.065-0.068,0.097-0.104c0.003-0.004,0.007-0.008,0.011-0.012c0,0,0.001,0,0.002-0.002
			c0.01-0.012,0.02-0.023,0.031-0.035c0.045-0.053,0.089-0.108,0.132-0.167c0,0-0.001,0-0.001-0.001l0,0
			C21.142,8.681,20.954,8.53,20.752,8.402"/>
		<path fill="#E30613" d="M15.735,5.699c0.001,0.011,0.002,0.024,0.003,0.036c0,0.003,0.001,0.007,0.002,0.011
			c0-0.01-0.002-0.02-0.002-0.029c0.37-0.239,0.793-0.403,1.248-0.471c0-0.001-0.001-0.004-0.001-0.006
			c-0.084-0.354-0.242-0.621-0.453-0.817C16.371,4.912,16.094,5.348,15.735,5.699"/>
	</g>
	<g>
		<defs>
			<path id="SVGID_1_" d="M12.849,4.161L12.849,4.161c2.249-2.095,4.645-2.2,4.645-2.2c-0.56-0.178-1.057-0.254-1.496-0.254
				C13.52,1.708,12.859,4.123,12.849,4.161 M20.024,2.29c-2.552-0.417-3.958,0.077-5.664,0.956c0,0,1.307-0.461,2.999-0.054
				c1.869,0.451,3.088,0.244,3.96-0.093c0.873-0.336,2.031-1.233,2.507-1.957l0,0C23.799,1.17,22.276,2.657,20.024,2.29"/>
		</defs>
		<clipPath id="SVGID_2_">
			<use xlink:href="#SVGID_1_"  overflow="visible"/>
		</clipPath>
		
			<linearGradient id="SVGID_3_" gradientUnits="userSpaceOnUse" x1="-395.3169" y1="303.4268" x2="-395.2156" y2="303.4268" gradientTransform="matrix(-64.18 -35.7223 35.7223 -64.18 -36186.957 5357.8442)">
			<stop  offset="0" style="stop-color:#DEDC00"/>
			<stop  offset="0.0041" style="stop-color:#DEDC00"/>
			<stop  offset="0.5879" style="stop-color:#95C11F"/>
			<stop  offset="0.6325" style="stop-color:#89BE3A"/>
			<stop  offset="0.7238" style="stop-color:#63B76B"/>
			<stop  offset="0.8541" style="stop-color:#00ACA9"/>
			<stop  offset="1" style="stop-color:#009FE3"/>
		</linearGradient>
		<polygon clip-path="url(#SVGID_2_)" fill="url(#SVGID_3_)" points="25.11,1.855 15.446,-3.523 11.566,3.447 21.23,8.826 		"/>
	</g>
	<g>
		<path fill="#009640" d="M0.479,12.846l0.184-0.862h0.28L0.76,12.846H0.479z M1.511,12.846l0.181-0.848
			c0.066-0.313,0.022-0.423-0.319-0.423H0.75l0.042-0.193h0.633c0.477,0,0.655,0.097,0.547,0.607l-0.183,0.856H1.511z"/>
		<path fill="#009640" d="M3.226,12.846l0.179-0.842c0.067-0.318,0.035-0.429-0.263-0.429H2.71l-0.271,1.271H2.162l0.312-1.464
			l0.719-0.002c0.462-0.004,0.592,0.14,0.498,0.586l-0.188,0.88H3.226z"/>
		<path fill="#009640" d="M4.361,12.846H3.967l0.041-0.191h0.345c0.283,0,0.575-0.096,0.669-0.537
			c0.078-0.368,0.036-0.582-0.262-0.582c-0.356,0-0.595,0.436-0.506,0.704h-0.26c-0.134-0.263,0.156-0.9,0.808-0.9
			c0.462,0,0.614,0.274,0.508,0.775C5.191,12.668,4.812,12.846,4.361,12.846"/>
		<path fill="#009640" d="M6.356,12.846H5.562l0.16-1.464h0.274l-0.132,1.272h0.412c0.368,0,0.561-0.057,0.63-0.383l0.189-0.89
			h0.278l-0.185,0.869C7.077,12.77,6.748,12.846,6.356,12.846 M6.231,12.364l0.209-0.982h0.274l-0.208,0.982H6.231z"/>
		<path fill="#009640" d="M8.065,12.846l0.042-0.201c0.212,0.064,0.472,0.049,0.535-0.248l0.098-0.464
			c0.024-0.113,0.094-0.397-0.233-0.397c-0.31,0-0.555,0.329-0.605,0.564l-0.158,0.746H7.466L7.709,11.7
			c0.016-0.075,0.045-0.175,0.033-0.318h0.26c0.018,0.1,0.001,0.175-0.026,0.304c0.005,0.015,0.013,0.018,0.028,0.003
			c0,0,0.187-0.355,0.595-0.355c0.564,0,0.462,0.413,0.423,0.595l-0.104,0.489C8.826,12.854,8.448,12.953,8.065,12.846"/>
		<path fill="#009640" d="M9.896,12.846H9.613l0.345-0.896c0.078-0.198,0.177-0.375-0.127-0.375H9.512
			c-0.143,0-0.275-0.064-0.232-0.271c0.001-0.004,0.059-0.275,0.059-0.275c0.036-0.171-0.006-0.288-0.006-0.288h0.299
			c0,0,0.025,0.101-0.01,0.267c-0.078,0.365-0.065,0.375,0.106,0.375h0.339c0.453,0,0.268,0.336,0.172,0.58L9.896,12.846z"/>
		<path fill="#009640" d="M11.169,12.846l0.184-0.862h0.28l-0.184,0.862H11.169z M12.201,12.846l0.18-0.848
			c0.066-0.313,0.022-0.423-0.319-0.423h-0.623l0.041-0.193h0.634c0.477,0,0.654,0.097,0.546,0.607l-0.182,0.856H12.201z"/>
		<path fill="#009640" d="M12.72,12.846l0.041-0.191h0.401c0.344,0,0.511-0.249,0.578-0.563c0.076-0.355-0.074-0.516-0.37-0.516
			h-0.361l0.041-0.193h0.365c0.441,0,0.737,0.158,0.622,0.704c-0.107,0.504-0.414,0.516-0.425,0.564
			c-0.006,0.029,0.12,0.004,0.199,0.004h0.254l-0.041,0.191H12.72z"/>
		<path fill="#009640" d="M14.303,12.846l0.25-1.178c0.017-0.075,0.018-0.247-0.001-0.286h0.284c0,0,0.037,0.088-0.006,0.292
			l-0.249,1.172H14.303z"/>
		<path fill="#009640" d="M15.667,12.89c-0.581,0-0.604-0.457-0.555-0.686l0.174-0.822h0.277l-0.177,0.834
			c-0.042,0.201,0.031,0.473,0.33,0.473c0.342,0,0.471-0.318,0.516-0.528c0.084-0.396,0.082-0.608-0.174-0.608
			c-0.193,0-0.225,0.067-0.239,0.067l0.041-0.196c0.004-0.02,0.111-0.084,0.267-0.084c0.43,0,0.524,0.201,0.393,0.819
			C16.42,12.615,16.146,12.89,15.667,12.89"/>
		<path fill="#009640" d="M17.646,12.23l0.12-0.563c0.016-0.075,0.018-0.247,0-0.286h0.283c0,0,0.037,0.088-0.006,0.292
			l-0.119,0.557H17.646z"/>
		<path fill="#009640" d="M18.053,12.846l0.042-0.195h0.444c0.488,0,0.711-1.075,0.223-1.075h-0.438l0.041-0.193h0.438
			c0.865,0,0.58,1.464-0.305,1.464H18.053z"/>
		<path fill="#009640" d="M19.426,12.846l0.183-0.862h0.281l-0.184,0.862H19.426z M20.457,12.846l0.181-0.848
			c0.066-0.313,0.022-0.423-0.319-0.423h-0.623l0.041-0.193h0.634c0.476,0,0.654,0.097,0.546,0.607l-0.183,0.856H20.457z"/>
		<path fill="#009640" d="M15.608,7.682h-0.241l0.293-0.759c0.065-0.168,0.15-0.319-0.108-0.319h-0.271
			c-0.122,0-0.234-0.055-0.197-0.23c0.001-0.003,0.05-0.233,0.05-0.233c0.031-0.145-0.005-0.245-0.005-0.245h0.253
			c0,0,0.022,0.084-0.008,0.226c-0.065,0.309-0.055,0.319,0.091,0.319h0.288c0.385,0,0.228,0.284,0.146,0.492L15.608,7.682z"/>
		<path fill="#009640" d="M16.591,7.682h-0.65l0.035-0.162h0.392l-0.163-1.079h0.251l0.152,1.079c0.124,0,0.294-0.068,0.359-0.367
			l0.15-0.712h0.236c0,0-0.09,0.428-0.152,0.718C17.122,7.53,16.9,7.682,16.591,7.682"/>
		<path fill="#009640" d="M17.94,7.682l0.036-0.17c0.179,0.054,0.4,0.042,0.454-0.21l0.084-0.393
			c0.021-0.097,0.079-0.339-0.199-0.339c-0.263,0-0.471,0.279-0.513,0.479l-0.135,0.633h-0.235l0.207-0.972
			c0.014-0.064,0.039-0.148,0.027-0.27h0.221c0.014,0.084,0,0.148-0.023,0.257c0.005,0.012,0.012,0.015,0.025,0.002
			c0,0,0.158-0.302,0.506-0.302c0.479,0,0.392,0.351,0.359,0.504l-0.088,0.416C18.586,7.69,18.265,7.775,17.94,7.682"/>
	</g>
</g>
</svg>
